<svg width="1128" height="1128" viewBox="0 0 1128 1128" fill="none" xmlns="http://www.w3.org/2000/svg">
<path d="M856.277 6L854.14 6.9082L851.009 8.01733L850.126 10.2908L847.474 11.4745L845.304 10.5175L842.855 10.6661L842.402 7.56464L840.206 6.24823L838.161 10.1876L838.615 12.5099L839.927 15.0079L841.035 17.0802L840.206 19.4514L838.486 16.7245L831.648 17.5078L833.009 19.6288L834.902 20.5098L836.673 22.582L830.913 23.4141L833.64 27.3049L838.915 25.0063L841.542 27.6548L842.732 30.7348L847.095 31.2877L838.689 31.9186L838.485 34.3698L839.546 38.3814L835.257 40.7292L837.53 44.0615L836.745 46.4092L838.057 48.5283L841.922 50.9288L838.663 50.7012L835.813 51.3828L836.317 54.6115L836.19 57.2384L839.321 60.719L836.342 60.8981L833.088 64.0779L832.458 66.5037L829.579 68.8514L829.278 71.2463L827.104 72.5627L826.925 70.1135L825.97 67.7657L826.07 65.2419L825.922 62.3631L825.517 59.8396L825.59 57.3143L824.127 49.9195L820.67 50.0227L816.804 52.0637L823.396 45.552L824.101 42.9523L823.293 40.0735L821.527 35.7357L821.074 33.1575L821.804 30.9133L820.896 28.7943L817.435 26.925L812.944 34.7258L811.958 37.8547L811.353 41.0109L809.765 45.2998L809.458 48.0751L808.251 50.4208L808.4 57.5401L806.052 61.6084L802.921 72.5618L799.013 83.0092L801.812 83.5172L802.493 86.1151L801.255 88.7438L799.968 93.6385L799.036 95.7341L797.775 102.699L795.453 103.888L794.142 101.363L793.534 98.4099L791.667 100.476L793.052 103.582L792.824 105.984L790.402 103.356L789.441 99.0117L789.262 96.2618L788.962 93.4865L790.55 90.7597L792.976 83.8182L791.034 85.3865L789.116 82.4333L790.452 79.2771L793.128 77.7341L792.044 75.5659L791.106 72.1576L785.985 72.3852L790.931 71.5276L790.2 68.2698L786.438 69.5316L789.544 64.7637L791.488 61.4315L794.39 55.4705L795.095 52.9999L796.738 50.6542L795.599 47.5232L798.429 45.1484L800.396 40.4783L800.953 37.2496L798.177 36.8454L796.663 39.117L794.894 36.7966L792.724 37.9059L791.789 41.0604L788.712 40.9572L790.023 38.6643L789.92 35.7072L784.24 34.5489L785.906 37.4277L786.918 39.5721L787.045 45.502L784.949 47.7265L784.798 44.9454L782.954 41.416L779.069 39.3203L778.436 43.6837L776.213 41.4393L777.174 38.207L775.809 34.9276L774.852 37.2499L775.66 39.6699L771.47 41.1095L771.191 38.3341L769.096 36.6682L766.068 36.5681L765.26 39.2166L766.951 43.2791L769.529 45.5762L766.976 46.1094L767.281 48.8362L767.102 51.0842L763.569 48.9081L760.338 47.2419L758.598 51.1072L758.671 54.0604L761.753 55.0955L765.11 55.4997L768.921 57.0135L771.519 59.2069L774.398 62.2108L773.638 64.8378L771.47 64.3337L764.932 61.2048L762.885 61.3262L762.053 64.6329L761.472 69.8595L759.78 74.0999L764.075 75.1839L765.864 78.0142L762.507 77.1566L755.013 77.4297L752.686 79.752L751.626 83.1094L749.384 86.668L746.706 90.9335L746.178 94.9218L749.584 96.5134L745.143 98.3765L742.821 101.685L748.297 101.281L745.671 102.291L741.987 104.16L744.714 105.496L746.958 106.053L745.143 108.174L747.638 109.258L746.858 111.457L744.661 112.186L742.265 114.233L746.505 117.713L753.146 118.422L750.97 121.879L748.323 124.38L746.933 121.426L743.526 123.545L742.216 120.744L741.43 118.422H738.403L737.541 115.973L737.141 113.424L735.953 111.102L733.557 114.786L728.026 118.319L721.311 120.745L718.561 122.663L721.133 120.237L723.057 117.995L725.25 118.02L730.022 115.796L733.026 113.247L734.588 106.282L726.36 106.555L724.092 105.899L721.414 104.967L717.752 106.254L717.879 108.729L717.703 112.717L723.86 115.163L720.201 113.926L715.858 114.434L716.189 111.53L714.823 108.147L715.582 105.924L714.045 102.946L710.762 104.41L710.486 107.668L708.567 103.148L706.522 104.232L705.94 102.088L702.03 108.172L704.452 111.805L705.057 114.127L705.614 116.553L703.696 114.609L702.583 112.234L698.772 108.852L695.666 106.811L693.447 105.776L693.801 108.551L693.722 110.996L694.126 113.497L692.46 111.401L690.972 109.233L687.663 112.135L686.603 114.936L688.521 116.528L691.173 117.614L694.482 116.854L693.802 119.377L696.523 122.637L699.732 121.877L702.685 124.1L705.509 121.02L708.917 121.068L712.15 119.506L710.031 123.064L705.234 125.59L707.482 127.255L709.827 126.802L712.958 125.767L713.162 128.064L712.828 130.437L712.758 130.937L712.655 130.437L712.274 128.566L709.577 129.756L709.65 130.437L709.759 131.438L709.85 132.279L710.807 134.951L713.129 138.008L713.961 140.557L711.541 140.684L714.592 142.295L716.614 145.378L717.875 147.649L714.647 147.391L716.742 147.016L713.078 144.59L711.438 141.766L706.469 137.955L704.324 137.728L701.898 136.362L701.168 132.954L700.007 131.432L699.298 130.505L699.074 130.432L692.456 128.311L690.931 130.432L690.643 130.834L690.552 131.432L690.288 133.205L690.442 136.434L694.075 138.051L690.815 138.61L692.103 143.456L690.113 145.422L690.21 141.282L687.967 142.444L687.459 145.299L686.477 148.602L683.323 143.125L684.559 139.895L685.895 136.361L679.989 143.707L681.149 146.586L680.493 148.883L676.909 151.807L674.463 155.621L674.965 159.838L676.252 165.111L680.088 167.256L682.439 170.816L684.785 171.975L680.517 171.723L678.021 170.185L675.064 167.961L674.511 170.486L674.332 173.844L672.918 177.201L670.344 184.422L666.08 190.127L663.353 193.258L665.877 187.096L668.603 183.916L669.082 180.08L670.418 177.58L669.865 174.853L670.473 171.369L670.7 168.267L671.858 165.744L671.154 163.318L669.06 160.064V155.267L668.987 152.54L669.44 149.662L669.212 146.101L668.985 143.455L663.832 137.952L662.52 141.685L662.215 145.298L660.905 142.089L660.677 145.673L660.097 148.453L658.079 155.42L658.054 152.718L657.472 150.041L655.378 155.795L654.696 160.088L655.071 162.51L656.058 164.885L658.759 167.307L660.83 168.543L663.074 169.653L661.082 169.151L659.011 168.139L654.214 169.278L653.71 174.957L654.415 177.985L654.239 181.844L650.255 186.01L651.261 182.879L652.603 179.903L651.665 177.047L651.744 174.426L652.879 168.416L652.346 165.059L651.162 162.362L651.844 159.61L651.488 156.908L650.961 152.412L646.089 154.158L643.162 156.426L638.921 156.553L636.171 159.608L633.898 161.019L634.019 164.456L630.967 171.194L632.531 176.243L634.803 175.814L637.328 174.448L639.9 175.03L641.113 177.304L638.338 175.46L635.484 177.249L633.994 179.649L634.35 182.982L637.229 186.339L639.826 189.343L645.354 188.435L649.09 192.823L649.139 195.654L650.279 198.306L650.959 200.499L646.842 200.727L644.6 200.199L644.372 197.725L642.021 197.546L644.747 196.915L646.921 194.616L645.708 191.21L639.068 190.931L635.507 188.284L635.005 185.833L632.003 183.817L631.347 181.317L629.755 178.917L629.099 176.545L621.171 179.651L618.671 181.77L618.95 184.192L621.12 186.543L623.116 187.954L625.788 191.794L634.599 193.987L636.565 197.192L634.272 196.665L630.862 194.717L628.337 195.121L626.345 198.305L624.3 196.413L622.431 193.026L622.558 195.477L623.037 199.54L622.355 202.319L622.559 199.741L621.701 197.37L621.622 194.87L619.276 190.655L617.032 190.961L617.003 187.879L614.079 183.738L611.177 185.483L610.692 188.032L611.452 190.454L610.442 193.686L608.524 198.104L607.641 200.776L608.627 205.249L611.2 204.942L610.594 207.594L611.125 209.813L613.344 210.774L607.794 211.858L605.448 214.334L599.387 215.393L598.329 220.063L597.317 222.483L596.913 226.17L595.804 229.454L597.343 231.802L602.82 231.421L605.044 234.577L603.023 233.063L600.371 235.134L598.734 237.278L596.584 238.792L602.166 240.936L606.404 241.995L606.711 244.343L604.615 242.173L599.867 241.872L596.535 240.079L593.025 242.755L592.246 246.921L595.525 245.934L598.734 249.948L601.283 251.009L598.857 251.945L596.105 250.708L593.103 249.165L589.972 249.188L587.222 250.653L587.804 253.208L588.435 255.628L586.714 253.354L584.625 251.161L581.794 251.511L578.486 252.827L575.409 255.579L572.605 257.546L571.9 260.677L573.21 263.329L573.695 265.572L571.697 264.566L569.804 268.023L570.261 268.933L570.761 269.933L570.968 270.345L572.378 273.021L576.39 272.642L578.388 271.306L581.695 271.277L582.529 269.933L583.056 269.081L583.168 268.933L585.332 265.975L588.033 267.366L588.403 268.933L588.609 269.811L588.561 269.933L587.781 271.833L592.807 269.933L593.988 269.486L594.35 268.933L596.69 265.345L599.999 263.581L601.891 263.502L600.434 268.934L600.301 269.438L603.244 268.934L604.59 268.703L604.932 268.934L606.418 269.934L611.383 273.274L607.899 271.479L602.647 270.725L597.526 272.49L604.442 276.152L601.942 275.925L596.491 273.02L593.133 276.225L593.965 278.848L595.608 281.022L599.694 284.128L600.883 286.499L598.94 287.534L598.512 290.335L597.778 287.86L598.005 285.188L593.361 281.475L592.503 278.823L590.786 276.478L587.05 279.153L582.075 281.323L583.262 279.081L580.942 276.956L577.456 275.19L567.561 278.927L563.602 280.845L566.727 282.333L569.834 284.528L574.729 285.894L575.819 288.773L577.688 291.622L581.272 294.802L583.11 296.72L581.118 296.37L575.286 292.456L573.118 287.737L567.788 286.249L564.811 284.558L561.784 284.128L561.202 287.333L563.473 288.368L568.473 290.335L564.436 290.892L563.347 292.81L571.679 290.035L572.61 292.332L574.985 294.857L570.845 293.968L572.333 296.015L569.534 297.05L566.477 299.146L569.632 302.05L572.358 299.097L574.706 299.17L576.654 301.168L579.552 303.662L575.968 302.756L573.118 300.763L571.12 303.765L570.618 306.185L574.251 308.41L574.681 310.682L576.623 311.186L572.941 310.377L569.988 309.115L572.488 312.069L572.788 314.897L567.186 309.371L568.27 311.639L568.726 314.695L570.239 318.807L574.681 321.838V323.782L569.331 318.635L566.93 316.08L566.477 312.295L564.534 309.168L560.999 306.162L561.858 303.386L560.95 300.383L561.629 297.959L559.436 294.931L559.557 292.505L558.198 289.552L556.304 290.562L556.685 293.314L554.485 296.316L555.825 299.22L553.603 302.656L551.028 304.471L547.696 305.18L548.077 302.756L550.171 303.562L550.522 301.242L549.92 298.667L547.34 297.253L547.366 299.751L546.104 301.695L544.088 303.158L543.658 300.23L540.682 302.705L537.729 307.576L539.996 311.541L540.651 309.293L545.625 304.826L547.219 307.553L553.932 305.811L555.826 305.23L556.481 307.955L561.555 308.66L558.699 310.051L557.922 313.127L556.28 315.779L555.875 318.127L555.092 315.83L552.444 314.065L546.207 319.616L545.828 322.342L545.676 319.693L544.438 317.496L539.04 320.123L535.983 323.83L535.683 320.731L532.374 320.876L529.65 320.423L526.745 322.445L525.384 324.791L532.021 324.816L528.816 325.171L526.241 326.507L523.185 327.29L523.87 329.913L526.671 330.471L530.304 330.544L532.222 332.365L534.318 332.465L526.898 333.856L524.048 335.394L527.124 336.33L523.589 340.797L526.218 341.048L529.698 339.104L532.374 337.794L536.517 334.511L538.759 331.282L540.021 329.284L541.945 325.977L541.793 322.747L542.651 325.173L543.281 322.19L543.887 324.439L543.055 327.392L549.389 328.501L551.307 327.392L551.282 329.536L555.952 335.821L551.155 331.71L549.137 330.749L543.282 332.341L546.081 335.013L549.163 334.333L551.534 336.073L547.975 336.907L542.348 334.411L540.174 333.78L541.516 336.329L538.459 342.639L541.84 342.438L544.618 342.739L546.284 344.809L543.458 344.479L539.899 345.311L540.456 349.557L549.542 349.526L552.773 346.346L559.915 345.34L556.483 346.145L550.903 349.907L550.321 354.678L548.886 356.799L551.331 359.096L552.595 362.049L553.476 364.672L555.601 366.215L552.722 368.286L552.643 365.481L550.577 362.809L550.069 360.51L548.127 356.444L547.318 354.096L543.961 352.229L539.568 354.525L537.398 356.068L538.937 352.051L537.602 350.009L534.746 352.252L532.051 354.881L528.717 353.465L532.652 353.14L533.258 350.562L533.537 348.062L536.969 348.894L533.586 345.794L531.49 346.474L525.634 350.562L524.195 353.667L527 356.773L530.707 357L534.113 356.266L532.195 358.288L530.027 359.323L526.517 361.772L524.648 359.12L520.787 360.511L520.486 362.833L517.357 367.452L516.218 369.671L514.527 372.702L512.609 374.29L515.212 373.634L521.847 372.042L523.969 371.288L523.717 375.577L526.595 371.111L530.81 370.406L535.277 368.361L538.66 366.945L535.834 372.22L542.371 371.992L543.984 374.742L546.838 372.348L553.35 374.492L556.076 373.934L557.059 376.586L548.504 374.014L546.961 376.207L549.717 378.836L548.627 381.661L550.978 385.397L548.83 385.122L546.812 383.504L545.699 378.077L543.279 377.672L541.158 376.311L536.41 374.946L534.339 376.385L534.194 381.991L534.621 384.313L531.338 381.108L531.791 378.634L533.408 375.099L530.406 375.956L525.988 376.538L522.351 377.243L518.871 378.86L523.238 378.835L526.088 380.326L526.167 382.824L524.145 380.171L516.016 383.125L516.977 380.123L513.141 381.888L513.038 384.564L512.334 387.695L515.084 387.34L518.998 388.252L522.278 389.687L521.016 391.758L520.133 389.387L516.474 388.426L511.826 388.982L511.929 391.887L509.679 395.85L507.007 394.863L506.023 391.732L505.06 389.338L504.05 391.887L504.859 394.637L503.044 398.094L501.757 400.695L501.578 397.186L501.526 394.889L498.474 397.487L495.569 399.864L489.841 400.518L489.436 403.196L492.089 403.043L494.032 406.045L494.737 408.342L498.02 409.985L504.306 411.247L497.034 411.424L494.356 410.389L491.911 410.286L490.497 413.012L495.62 414.879L490.448 414.904L490.22 417.281L492.314 417.986L495.496 416.143L501.248 415.816L498.424 417.883L495.092 419.676L488.504 418.188L481.232 419.549L488.248 421.318L489.736 424.045L486.533 422.703L484.136 423.916L481.209 423.285L478.304 423.69L481.006 425.08L483.658 425.51L480.98 427.904L479.818 431.311L481.992 431.893L484.059 431.11L486.912 430.453L489.308 426.82L492.291 426.717L489.535 428.609L488.781 431.012L495.189 433.86L491.783 432.979L487.592 432.273L483.984 432.523L482.648 435.857L482.921 438.934L485.371 439.19L480.874 439.037L480.647 436.563L479.336 434.141L476.535 432.574L472.346 434.418L475.575 435.955L478.858 439.112L476.885 439.717L479.11 442.647L478.405 445.121L473.884 447.645L475.274 450.598L477.192 450.75L479.208 451.707L481.585 452.135L485.114 449.514L485.143 447.137L487.614 448.172L487.314 450.291L490.396 451.481L484.687 451.731L478.755 456.301L477.37 458.497L476.886 462.282L481.229 459.61L485.114 456.124L487.97 456.175L490.848 454.764L494.733 453.274L494.782 456.026L498.09 453.979L500.663 452.743L504.376 452.995L505.815 450.268L508.517 449.133L511.569 447.596L510.712 450.194L507.481 452.895L506.446 455.622L502.03 457.159L499.628 459.102L499.327 455.671L495.591 457.614L494.708 460.468L497.913 461.351L500.259 460.946L501.901 463.22L498.218 462.485L495.112 463.169L492.362 465.896L492.716 463.294L493.802 460.517L491.804 459.837L491.731 456.253L484.538 458.398L482.012 461.099L479.79 462.538L476.255 464.052L470.403 465.769L466.618 468.267L465.528 473.364L474.087 472.183L473.986 475.612L474.691 479.652L477.062 480.583L480.016 482.279L480.726 484.828L481.076 488.185L477.596 483.941L474.387 482.402L472.67 480.283L470.324 479.271L468.357 479.497L464.92 482.732L463.713 485.607L463.434 488.185L464.696 490.177L464.574 492.174L461.596 495.758L462.375 498.859L464.924 501.812L466.314 504.238L469.445 505.801L466.265 505.449L463.361 504.966L462.552 501.939L460.281 498.404L457.203 501.26L456.218 503.631L454.955 507.062L456.72 511.455L456.823 514.61L458.942 514.383L461.063 510.572L460.309 513.348L458.942 515.596L461.339 514.463L462.399 509.967L462.729 513.224L462.602 515.67L463.514 518.096L463.992 520.418L469.85 520.191L465.432 521.123L465.253 523.873L466.718 526.752L464.825 523.494L462.68 522.084L460.028 522.763L461.419 524.885L462.226 528.191L464.874 528.621L467.275 530.766L464.095 528.873L460.333 527.861L457.681 531.727L459.978 530.49L457.933 532.812L455.409 533.393L454.122 538.112L455.636 536.194L458.693 535.637L461.492 535.992L463.968 536.445L467.048 537.277L461.669 537.352L458.613 537.756L456.872 539.9L458.968 540.434L460.181 542.908L457.153 543.436L458.894 546.467L463.613 544.066L466.919 541.598L473.029 533.289L475.503 531.849L471.54 537.681L470.505 540.182L468.587 542.426L466.718 544.924L465.027 547.301L460.941 548.459L459.373 550.859L455.966 551.137L454.023 553.006L450.716 554.291L450.537 557.17L447.939 554.291L444.757 553.66L442.357 553.182L439.961 554.898L437.99 556.865L436.476 560.701L434.558 561.863L431.475 562.973L429.331 562.318L426.532 564.033L430.618 565.094L427.794 566.76L423.903 564.916L421.501 567.32L420.501 568.321L418.579 570.244L420.501 569.783L421.501 569.543L430.899 567.291L433.092 567.065L428.246 569.639L421.5 572.467L420.5 572.887L418.983 573.523L420.5 573.943L421.5 574.221L422.188 574.41L424.791 574.106L422.444 577.438L421.5 578.266L420.5 579.145L419.338 580.164L420.5 579.659L424.258 578.02L425.747 575.95L429.184 573.071L431.506 569.008L435.667 567.164L441.524 562.318L446.393 560.272L449.524 560.475L452.403 562.797L446.345 561.533L444.378 563.782L441.774 564.26L438.293 566.785L435.922 567.721L434.686 569.842L432.664 571.104L435.09 571.202L437.485 571.583L433.473 572.893L437.711 575.772L429.459 577.286L430.77 579.761L428.754 579.155L426.984 581.2L424.969 581.704L424.135 584.001L425.166 586.728L426.305 589.228L429.662 593.368L429.784 590.538L432.411 588.772L433.545 591.169L436.754 591.776L433.471 593.165L430.592 594.325L428.219 594.98L428.826 597.405L426.426 599.22L425.971 601.695L432.135 601.267L427.41 602.755L424.586 603.337L423.981 607.275L421.498 609.312L421.277 609.494L420.498 610.679L418.705 613.408L420.17 609.824L420.498 609.341L421.497 607.874L421.958 607.199L422.638 604.527L421.497 603.998L420.498 603.535L419.207 602.935L416.304 603.492L416.407 600.005L414.034 597.456L412.542 595.363L412.216 592.74L408.858 591.074L407.823 593.419L408.81 596.068L407.952 598.161L408.607 600.539L405.905 599.931L403.229 600.917L399.694 601.923L399.265 604.271L403.405 604.753L403.533 607.302L404.109 609.777L400.751 605.937L396.009 604.802L396.439 607.277L393.333 604.902L391.665 607.076L395.427 608.185L396.462 611.818L393.13 610.355L395.102 613.16L392.751 610.986L391.286 613.031L392.173 615.887L389.394 618.435L387.126 618.76L383.995 620.934L386.12 621.629L386.77 621.842L388.284 624.844L386.12 623.08L385.839 622.852L381.594 624.543L380.712 628.453L379.124 630.346L382.126 631.608L378.29 631.637L375.11 632.09L376.196 634.764L374.958 637.746L374.278 641.104L372.985 643.071L375.006 642.666L378.389 642.514L373.217 646.403L376.397 645.116L378.719 643.953L380.964 642.715L381.52 645.116L379.424 644.559L377.71 646.451L371.374 647.664L369.174 650.967L363.09 654.404L360.113 659.201L367.233 658.541L365.112 658.92L359.609 663.416L360.291 666.291L362.539 664.047L367.281 662.129L370.112 661.444L373.67 658.668L376.342 657.278L376.371 660.133L378.946 658.571L375.258 662.075L372.508 662.76L367.99 664.678L368.623 667.327L368.395 669.875L371.576 673.182L371.777 675.756L372.281 678.965L375.209 680.149L378.186 679.542L381.317 677.17L384.043 675.125H386.922L390.379 673.715L394.52 670.455L397.473 668.74L399.618 664.953L402.118 664.653L404.641 662.229L408.2 661.297L410.774 657.658L413.274 653.117L413.323 650.717L411.307 649.43L407.669 648.094L403.024 651.727L398.557 653.166L401.21 650.19L406.633 647.916L408.024 645.92L409.842 643.775L418.372 637.213L419.081 633.629L420.495 632.711L421.179 632.267L421.495 632.062L423.321 630.879L421.495 632.574L420.495 633.504L420.064 633.904L420.466 636.484L420.495 636.494L421.495 636.668L424.228 637.143L428.571 638.705L426.802 640.649L421.93 642.166L421.495 642.432L420.495 643.045L419.204 643.834L417.587 646.785L414.737 648.399L415.345 651.633L420.495 650.735L421.495 650.559L422.157 650.444L424.101 651.579L426.275 651.407L427.562 653.876L427.383 656.528L423.572 656.78L421.494 657.751L420.494 658.217L420.166 658.372L418.902 660.921L415.822 663.341L412.691 662.208L408.095 665.057L405.927 668.341L403.857 669.124L401.962 670.864L401.841 674.221L403.859 673.665L406.23 672.054L408.808 671.673L408.857 675.534L405.524 675.913L402.927 678.614L405.298 681.948L407.896 684.042L406.003 684.497L402.999 684.974L400.501 683.89L395.226 685.354L392.878 683.763L390.452 683.964L388.235 684.595L386.237 682.854L380.963 684.018L378.315 685.607L376.801 688.663L378.34 691.359L384.246 692.749L385.256 695.905L384.803 698.931L383.008 693.987L378.922 694.288L377.004 692.093L374.504 691.187L371.399 693.784L369.151 693.987L373.114 688.687L373.34 684.245L371.577 681.997L370.387 680.282L368.495 677.579L367.459 674.094L365.793 671.876L365.241 669.123L363.196 669.02L361.026 670.688L358.778 671.219L356.731 672.885L358.752 673.616L359.231 676.417L357.743 674.045L355.621 675.104L352.619 677.604L350.445 676.544L347.719 678.915L344.692 679.423L346.408 683.284L349.74 681.844L352.063 682.78L356.352 682.249L345.397 685.28L344.821 687.903L348.172 689.618L354.563 689.747L348.326 691.083L343.834 693.632L341.967 696.585L342.371 692.622L343.608 689.317L342.873 686.567L338.785 682.628L335.986 686.01L334.32 688.104L332.248 685.507L330.129 685.856L326.717 686.059L325.431 688.382L327.224 690.782L329.976 691.94L327.629 693.936L320.738 695.249L321.142 697.442L323.488 701.003L325.484 703.427L336.336 703.122L322.857 705.903L322.68 708.349L325.027 711.202L321.473 709.284L310.162 708.146L312.637 709.688L311.804 713.677L311.07 711.073L309.531 708.856L308.797 712.212L309.709 714.634L309.427 717.005L312.435 718.144L317.252 719.101L315.615 722.054L319.173 720.417L322.857 718.37L320.406 720.845L322.379 721.624L324.904 722.685L317.369 724.003L316.675 724.124L320.21 728.669L323.867 729.908L326.24 733.945L323.966 732.327L322.152 730.054L317.71 729.326L318.894 731.8L313.036 729.423L313.367 726.9L312.435 724.251L311.652 721.22L310.236 719.075L307.638 718.015L305.946 715.569L306.224 713.145L302.815 710.823L300.593 712.893L298.626 716.349L297.891 719.227L301.126 718.952L304.232 722.232L306.651 724.05L307.987 727.077L307.03 729.601L307.56 731.949L309.808 734.576L312.937 735.911L314.605 737.83L317.507 739.599L321.497 743.937L320.689 747.675L320.462 745.126L318.381 742.815L315.955 742.03L310.955 736.958L307.678 736.001L305.883 732.895L305.379 730.297L304.645 725.879L303.787 723.528L298.793 721.286L294.727 723.405L288.568 725.753L291.596 723.883L292.709 721.059L288.746 720.778L286.725 722.243L284.555 724.514L283.008 725.61L282.306 726.106L282.008 726.014L280.138 725.446L279.482 722.725L276.681 720.428L275.064 718.278L272.896 717.346L270.396 718.608L266.783 719.694L263.859 722.118L259.24 725.17L261.966 727.241L264.06 730.977L269.209 731.077L271.377 733.454L265.599 732.29L262.394 734.513L262.341 737.565L261.886 740.267L274.76 739.306L277.891 738.423L279.984 737.288L282.008 736.687L283.008 736.39L286.02 735.495L288.697 735.722L283.008 737.097L282.008 737.339L280.769 737.638L277.742 741.277L277.283 743.98L282.008 743.82L282.533 743.801L283.008 743.514L287.178 740.995L297.102 738.501L300.559 738.067L303.082 737.969L302.881 740.619L305.079 744.352L301.973 741.502L298.489 741.17L294.297 740.946L284.225 744.659L283.008 745.967L282.008 747.041L281.853 747.207L282.008 747.829L282.588 750.161L282.008 750.967L281.174 752.128L280.592 747.967L278.344 748.42L278.422 751.245L281.4 753.922L282.008 753.903L283.008 753.872L291.699 753.593L283.594 757.124L283.008 756.747L282.358 756.325L282.008 756.101L280.744 755.282H278.545L274.41 750.54L268.553 748.341L268.123 752.153L267.088 754.401L266.609 751.979L264.639 748.495L266.182 746.473L258.48 746.755L259.387 749.757L259.363 752.384L258.099 750.136L254.363 746.02L250.908 747.208L248.359 749.708L247.574 752.936L245.228 748.395L237.025 748.544L234.955 749.708L234.752 752.153L234.549 754.982L245.076 755.46L242.477 756.546L247.703 756.245L249.873 758.567L244.572 757.63L240.082 758.339L237.123 759.603L234.224 760.987H236.32L239.144 763.511L242.428 763.21L250.404 759.829L253.584 761.392L256.41 761.948L257.291 764.95L252.422 763.413L248.684 763.187L245.381 764.423L245.204 766.923L245.155 769.446L243.764 766.542L240.407 765.888L238.589 768.357L239.397 772.726L242.073 777.571L245.278 787.214L242.833 789.261L243.942 786.939L243.839 784.335L240.737 777.927L238.337 775.175L237.731 772.376L235.636 767.628L233.19 768.388L228.723 770.782L226.801 771.163L224.606 772.376L222.61 774.366L221.274 777.069L222.813 779.366L225.514 780.603L222.965 779.948L220.895 778.355L220.317 780.78L222.286 782.093L224.583 785.978L225.967 788.378L236.37 792.796L230.415 790.878L227.229 790.597L224.331 791.607L224.227 789.083L220.999 785.597L218.903 791.858L216.225 795.064L216.655 792.538L219.608 787.165L219.938 784.739L219.889 782.442L216.907 780.401L214.18 782.116L210.221 782.471L211.079 786.431L212.948 789.284L209.512 785.474L208.475 782.821L204.793 781.866L202.244 780.323L200.553 782.546L200.475 786.835L206.381 790.345H204.389L201.51 795.191L201.41 790.749L199.262 788.427L196.59 786.786L195.225 782.821L194.115 780.427L192.02 777.878L188.662 779.214L187.504 781.534L188.889 783.581L188.637 786.056L192.375 786.861L195.604 789.843L198.305 794.23L195.83 793.224L194.821 795.896L192.123 798.371L188.992 797.513L187.074 801.527L189.746 803.064L191.768 802.035L196.736 801.324L200.602 801.753L203.225 800.871L208.072 802.261L219.002 804.681L211.127 805.312L215.393 807.003L217.893 806.347L219.938 807.433L222.842 807.611L224.987 809.429L231.297 809.124L240.862 811.322L242.803 807.941L248.182 807.787L252.526 809.429L249.065 809.808L246.038 808.242L242.479 810.336L239.348 813.744L234.956 812.935L232.43 810.894L224.735 811.875L226.323 814.301L227.891 816.219L224.76 815.054L223.369 812.584L219.811 811.422L216.984 816.898L218.168 814.375L218.725 811.752L218.346 808.896L211.078 809.681L206.507 811.041L210.472 807.511L207.542 805.134L203.909 804.254L201.937 803.242L197.14 803.119L194.212 808.168L192.093 809.931L186.491 812.13L184.825 814.097L189.722 813.693L187.147 814.857L186.792 817.431L183.716 814.627L181.591 816.316L180.733 818.841L179.624 821.217L181.266 824.322L190.909 824.978L193.911 825.328L191.919 826.266L194.972 827.197L196.841 829.445L194.415 828.08L187.931 828.435L194.972 831.438L188.862 831.638L186.517 830.884L187.73 834.568L191.919 837.295L196.136 836.969L198.403 839.867L200.901 839.088L204.437 837.625L206.581 836.713L209.712 837.318L211.759 840.828L208.376 837.723L203.782 840.248L201.532 841.361L199.161 841.637L192.52 839.77L189.04 838.053L186.817 839.266L182.626 839.518L179.801 841.992L183.184 842.772L182.424 845.148L181.872 842.82L179.954 844.793L180.077 847.19L181.971 849.26L186.29 846.912L201.636 846.129L204.614 847.643L197.116 846.711L190.376 848.604L192.374 851.404L191.462 854.485L188.71 848.426L186.718 848.303L185.028 850.877L181.995 851.686L180.077 852.059L179.649 856.127L181.72 855.545L179.827 857.793L184.55 857.463L186.718 858.725L187.448 862.639L183.485 860.52L181.192 860.19L180.989 862.616L183.514 863.823L186.792 864.557L186.413 867.08L190.198 865.592L191.462 868.264L194.872 869.907L196.993 868.846L200.423 865.641L205.116 865.465L208.499 863.926L209.614 861.352L210.245 864.68L213.021 864.631L216.452 864.453L218.448 865.666L220.771 865.918L224.905 863.272L225.917 866.145L228.894 868.192L232.38 869.276L234.831 869.354L237.783 866.904V864.178L236.669 861.629L238.843 861.654L238.488 858.798L239.193 855.595L242.146 856.453L243.585 854.007L246.742 848.427L246.085 850.699L244.548 853.15L242.201 858.167L240.13 860.722L244.193 863.32L249.872 864.656L254.919 867.259L254.54 870.287L257.519 869.252L262.597 868.117L264.183 865.74L268.3 866.88L271.505 864.785L269.636 862.56L268.675 857.996L267.363 855.166L270.066 850.748L269.232 848.25L271.603 848.781L278.195 844.261L275.818 846.054L274.556 848.328L272.461 850.596L271.781 853.855L270.169 857.414L270.923 859.81L271.05 862.31L272.638 864.252L275.041 864.404L282.361 862.463L283.007 862.32L284.781 861.93L283.14 863.926L282.007 864.295L281.197 864.559L275.216 864.785L273.195 866.776L271.199 869.074L274.181 872.18L271.579 871.776L269.109 869.631L265.396 868.797L263.601 871.045L259.411 871.119L257.167 873.289L258.505 877.582L260.501 883.11L262.872 883.893L262.542 888.207L260.372 891.038L260.98 884.75L258.554 882.606L255.147 882.379L251.438 884.524L255.452 881.088L257.089 878.944L256.157 875.893L254.595 872.18L251.538 870.844L250.755 868.117L248.837 867.156L241.313 865.465L238.186 870.992L235.915 871.371L233.77 873.063L231.044 875.99L231.645 873.012L227.938 873.545L227.784 870.691L225.364 869.705L221.651 868.063L218.927 868.522L216.831 867.916L212.389 867.891L208.928 870.967L208.829 867.965L205.698 869.024L203.401 869.325L202.016 871.727L198.909 870.489L196.686 871.954L195.907 874.348L195.375 876.751L192.672 874.047L189.039 872.86L186.063 870.514L183.483 869.379L180.862 869.453L178.637 871.498L177.957 873.895L178.514 877.026L181.24 877.583L183.182 877.835L181.137 880.383L180.584 885.303L180.229 882.981L178.944 878.336L176.696 879.096L177.578 882L178.135 884.469L181.215 888.586L184.125 889.622L186.115 890.608L189.369 888.612L190.76 885.989L192.83 885.786H196.01L198.235 886.645L195.961 887.655L193.989 886.895L190.155 889.04L189.602 891.743L186.901 892.649L186.471 895.227L188.487 896.638L192.377 900.196L192.653 903.553L190.508 902.469L191.924 905.901L189.424 905.147L188.108 902.168L187.176 898.406L182.127 895.731L180.664 893.762L178.617 893.182L175.817 890.553L173.594 891.11L175.793 892.905L177.459 896.135L179.856 897.293L181.748 899.491L179.352 898.707L182.153 902.268L184.272 906.862L181.827 903.958L179.475 903.782L182.809 908.479L185.08 911.102L187.047 911.458L190.055 910.067L193.057 907.469L196.893 905.698L197.12 901.004L199.823 900.803L203.407 897.672L202.346 900.829L205.323 900.906L204.516 903.909L204.319 906.182L203.686 909.08L203.333 912.315L203.229 914.711L203.284 917.487L202.143 920.415L198.989 923.85L195.405 923.368L192.354 921.071L190.055 917.768L188.236 915.292L186.043 914.508L184.022 918.295L184.297 921.805L184.676 925.389L181.142 925.008L180.107 928.747L182.783 930.614L180.185 931.497L180.234 933.868L185.154 936.595L183.058 939.855L187.152 939.83L185.105 941.343L186.845 944.271L189.4 945.834L191.998 942.072L194.447 938.769L196.715 934.072L197.775 930.566L199.367 928.317L202.824 927.888L200.33 929.556L199.24 932.28L197.75 935.259L196.869 937.532L198.836 935.585L200.098 939.347L196.164 942.275L196.514 946.288L198.939 945.025L201.941 941.441L204.846 941.496L201.389 943.537L201.99 947.121L201.187 950.453L204.568 950.38L201.893 952.98L199.975 952.825L201.689 958.303L205.25 957.421L207.444 954.063L207.596 951.11L208.656 945.307L210.598 942.93L212.596 939.573L213.477 937.049L216.938 938.415L219.205 938.237L219.942 935.309L219.965 932.863L221.633 930.211L219.488 928.619L223.574 927.057L222.135 923.949L222.416 921.401L223.373 925.666L225.114 927.584L227.11 927.131L229.28 924.961L231.6 924.354L235.135 923.166L237.133 922.26L241.747 919.434L238.266 923.877L241.549 924.582L245.661 920.844L249.093 919.557L253.136 913.932L255.862 912.996L252.653 917.008L250.888 919.434L256.064 921.905L252.505 920.594L246.825 921.905L244.552 923.95L241.22 928.319L239.454 930.917L236.729 937.657L236.802 941.546L234.554 946.368L234.229 948.665L233.721 953.058L233.573 950.658L233.848 947.226L234.352 944.574L235.038 938.415L236.649 935.941L236.979 932.964L237.911 930.341L240.085 926.175L236.044 924.532L233.598 925.568L231.981 928.013L228.016 929.833L226.43 931.855L224.231 934.152L221.909 934.704L220.897 937.962L219.133 941.394L216.333 942.607L216.559 945.052L219.661 949.548L223.727 946.773L224.71 949.297L216.762 951.263L213.024 953.861L211.358 959.644L210.704 961.893L204.694 962.523L202.727 963.529L200.301 969.031L200.706 971.683L204.342 976.48L208.405 974.232L209.845 971.205L208.657 974.914L209.692 977.793L212.72 977.565L216.382 974.512L221.583 971.659L223.501 972.012L217.999 975.243L212.67 979.157L210.475 979.788L207.217 977.235L205.93 979.561L202.623 981.399L202.022 985.413L203.307 985.616L200.907 987.105L198.737 989.482L198.205 984.407L192.881 983.52L191.441 986.374L190.963 988.997L191.238 991.523L189.701 994.958L185.558 996.599L187.857 992.937L189.32 990.566L189.144 987.79L190.031 985.468L190.558 982.085L190.129 978.374L187.832 980.646L186.091 983.648L187.023 986.474L185.816 988.849L184.677 984.96L182.71 985.995L181.22 988.923L178.82 992.103L177.613 994.706L176.4 996.951L176.374 999.781L177.759 1003.03L181.496 1008.64L182.582 1004.02L182.808 1006.37L182.457 1008.94L184.425 1012.22L184.498 1008.76L186.017 1005.13L186.14 1008.01L185.234 1011.14L186.342 1014.6L188.31 1015.61L190.258 1013.94L191.568 1011.31L193.156 1006.77L193.639 1009.7L193.865 1012.12L193.334 1014.75L195.631 1013.46L198.283 1011.59L200.201 1011.01L203.404 1010.58L203.281 1007.81L200.654 1004.07L198.662 1003.92L194.851 1005.4L197.045 1003.84L197.726 1000.54L199.269 1002.63L201.389 1001.37L201.793 998.819L200.857 996.247L202.799 995.688L205.777 1000.33L210.824 1001.02L214.211 999.677L216.155 1001.04L204.973 1002.88L204.668 1005.44L207.143 1010.05L208.557 1006.9L209.514 1004.65L211.205 1006.64L213.703 1004.52L216.504 1001.8L219.108 997.03L220.369 994.426L220.848 991.725L222.44 989.079L222.084 992.155L221.123 994.959L221.301 997.202L224.053 995.284L232.661 995.211L227.815 995.688L218.881 1000.28L216.859 1003.79L214.893 1005.86L212.719 1006.95L210.193 1009.8L209.74 1012.75L211.609 1010.81L212.894 1013.66L216.228 1013.71L217.49 1011.31L218.855 1014.52L212.521 1014.7L215.217 1018L217.264 1017.35L223.17 1013.64L228.219 1014.44L224.406 1014.12L222.488 1014.55L219.334 1017.45L215.902 1018.53L213.857 1020.65L211.205 1022.67L209.642 1025.15L209.892 1027.44L212.748 1028L209.06 1029.13L203.484 1030.62L202.65 1033.63L205.703 1037.85L208.048 1037.24L208.834 1039.91L206.787 1040.52L206.586 1043.15L208.502 1047.03L214.261 1039.79L220.117 1038.73L222.439 1037.39L233.977 1036.36L215.621 1041.02L211.736 1043.53L209.488 1047.34L211.836 1051.37L216.406 1052.73L210.701 1051.83L205.347 1046.17L203.912 1043.53L199.9 1041.8L198.865 1044.3L196.113 1044.41L194.521 1047.64L194.595 1045.09L195.507 1040.42L188.915 1035.04L188.235 1039.39L190.306 1040.12L190.257 1042.32V1045.09L188.058 1043.42L188.714 1045.85L187.579 1048.22L186.82 1050.97L186.495 1053.32L185.409 1055.54L183.339 1058.01L184.779 1060.39L185.509 1062.86L185.937 1065.89L187.628 1068.24L188.915 1072.36L190.38 1074.88L193.738 1077.65L195.048 1080.28L203.484 1082.17L203.532 1084.75L204.036 1087.22L205.499 1089.26L208.128 1091.21L210.37 1092.98L213.702 1093.96L215.646 1095.32L219.13 1099.23L225.392 1099.99L228.015 1101.71L230.539 1100.1L230.765 1095.68L231.55 1097.77L231.373 1100.17L233.773 1103.5L236.371 1101.21L240.256 1099.99L236.726 1101.86L234.883 1103.78L232.683 1104.86L231.625 1107.19H229.228L228.42 1109.59L226.576 1112.64L229.707 1115.97L235.49 1117.06L234.025 1112.97L233.469 1110.62L234.631 1107.77L235.869 1112.36L238.289 1111.5L238.014 1107.36L239.932 1110.02L242.229 1111.46L244.172 1112.36L240.74 1112.34L238.215 1114.51L242.277 1113.95L242.836 1116.8L245.305 1114.99L244.27 1118.5L248.944 1116.02L252.223 1115.49L250.305 1116.88L248.387 1118.07L245.965 1119.73L246.848 1122.68L249.17 1121.83L249.575 1119.4L254.242 1119.17L257.522 1119.78L262.772 1121.47L270.975 1119.5L272.44 1121.45L274.688 1117.86L278.627 1117.76L283.006 1116.95L287.335 1116.15L287.309 1113.6L289.655 1112.05L291.45 1107.29L292.811 1110.72L290.842 1113.24L291.524 1114.63L295.131 1114.58L298.893 1112.66L300.462 1109.56L300.61 1107.23L302.759 1106.28L306.239 1104.59L307.177 1102.16L309.144 1102.85L311.337 1101.36L313.054 1098.98L315.755 1097.42L317.382 1095.78L319.29 1093.86L320.226 1090.86L321.157 1088.06L324.388 1086.6L330.525 1078.52L329.185 1075.47L332.468 1076.05L335.746 1074.58L338.925 1071.66L339.558 1069.01L337.008 1068.83L340.85 1068.78L342.082 1066.36L337.266 1065.02L339.045 1067.28L336.404 1064.44L343.547 1065.4L345.971 1065.02L347.889 1062.85L349.457 1059.82L352.102 1057.43L350.137 1056.51L348.067 1056.84L344.535 1057.35L347.461 1055L349.354 1054.65L348.924 1052.35L353.041 1051.95L353.012 1049.71L358.239 1048.57L363.69 1045.29L360.787 1040.95L359.426 1037.87L356.022 1034.19L359.854 1033.33L360.283 1035.67L362.153 1038.91L362.25 1036.64L363.715 1039.16L366.141 1039.86L367.729 1041.93L368.787 1044.86L368.817 1047.58L374.596 1047.18L376.69 1044.53L378.485 1042.29L382.067 1041.78L380.073 1043.6L382.622 1043.57L385.022 1040.72L384.19 1037.67L384.944 1034.74L386.134 1038.64L386.585 1040.11L386.659 1034.74L387.67 1037.14L388.301 1032.67L388.529 1029.44L389.238 1026.59L390.324 1024.14L392.621 1022.5L394.84 1023.88L395.549 1020.96L394.459 1016.77L393.828 1014.44L395.195 1010.58L394.312 1008.26L390.574 1007.12L386.359 1001.5L386.408 998.745L389.037 1000.87L391.029 1000.64L391.537 996.522L391.382 992.33L390.095 989.531L385.857 987.257L385.097 984.203L386.134 984.436L387.468 984.737L390.55 986.781L392.113 989.657L392.392 992.008L392.997 995.592L392.718 999.122L393.325 1002L395.292 1002.31L397.718 1000.59L399.763 997.76L400.445 993.471L397.492 989.307L395.923 986.581L395.218 982.616L395.17 980.117L394.691 975.852L397.92 972.367L400.695 971.356L403.422 970.094L405.77 972.471L406.352 975.043L405.922 977.947L405.162 981.024L404.758 984.129L403.926 980.975L403.172 976.936L402.112 974.565L399.942 978.045L398.424 983.375L400.572 987.487L400.721 990.239L401.633 994.049L401.983 997.559L402.186 1001.3L403.852 1004.98L402.161 1007.96L401.255 1005.16L399.991 1009.62L402.517 1012.35L402.696 1014.8L403.327 1018.33L407.69 1018.51L406.254 1022.17L407.235 1025.07L407.817 1028.51L409.66 1030.55L412.762 1029.14L414.735 1031.66L414.887 1028.91L417.381 1030.83L418.441 1033.35L420.512 1032.54L423.213 1031.49L424.451 1028.99L424.199 1032.7L426.166 1034.64L430.234 1034.19L432.629 1035.32L433.664 1037.77L433.712 1038.1L434.214 1038.31L436.916 1045.34L441.689 1053.88L446.561 1050.9L448.227 1042.64L449.641 1033L452.012 1022.33L450.676 1015.1L446.383 994.003L454.561 986.357L454.059 979.286L455.977 971.083L464.229 971.132L470.061 966.057L477.559 955.887L478.768 946.397L477.707 936.074L481.469 928.348L480.739 920.623L475.815 909.263L470.11 898.437L468.346 889.703L466.752 880.566L478.063 877.308L483.718 876.247L484.729 868.902L488.614 860.323L489.091 850.932L475.716 835.585L470.442 834.524L465.394 829.122L460.167 823.319L464.737 781.946L463.272 773.792L455.548 749.862L457.288 741.737L454.843 726.463L459.028 720.029L449.765 697.057L457.54 680.017L455.474 671.869L459.788 666.968L466.173 654.427L475.412 639.38L483.314 633.602L492.174 630.624L519.26 634.987L524.711 619.616L515.424 597.026L504.517 590.133L520.974 556.235L525.998 545.305L527.414 534.504L530.82 525.437L529.963 517.387L530.539 496.99L532.309 486.667L527.181 464.152L543.992 460.745L556.869 444.589L553.991 432.649L561.135 423.311L573.327 395.166L581.654 384.842L581.152 372.926L569.54 355.992L571.153 348.921L579.589 344.13L582.769 336.581L586.653 314.899L600.585 297.708L621.611 302.579L626.004 287.257L622.199 269.985L622.041 269.262L622.038 268.986L621.943 260.375L630.905 257.169L638.172 261.662L648.141 259.541L662.38 264.265L678.964 266.789L684.515 256.716L675.227 252.906L681.817 242.331L683.431 230.212L681.561 221.906L673.106 214.032L688.05 210.601L690.622 204.671L699.886 208.353L697.896 197.221L704.359 187.172H713.972L729.019 205.78L733.888 209.487L738.839 216.684L744.341 225.997L758.574 227.94L763.297 226.149L768.977 230.39L776.85 223.601L781.37 221.906L783.969 216.38L787.577 210.675L794.169 212.593L801.258 216.685L805.956 217.292L811.71 217.946L817.921 222.536L824.231 218.07V208.857L828.62 196.944L834.857 195.708L837.001 189.372L836.675 182.553L834.478 175.643L831.7 167.739L831.173 160.014L830.567 151.43L830.667 144.44L831.63 137.119L829.564 131.484L829.199 130.484L829.179 130.436L833.953 126.27L835.92 118.85L838.217 113.195L843.619 105.293L851.34 104.307L860.205 101.531L862.172 94.8416L870.3 88.0526L872.011 89.2654L884.271 98.0509L890.986 99.4122L915.85 107.69L919.99 113.926L926.907 122.153L925.897 129.831L925.63 130.487L925.223 131.487L919.684 145.099L921.301 153.884L926.803 159.036L929.255 154.013L929.507 144.95L931.423 137.857L933.194 133.189L937.813 131.546L937.853 131.488L938.528 130.488L940.816 127.105L946.771 122.154L948.792 115.642L948.817 107.665L948.921 102.39L957.046 107.009L964.085 106.077L966.889 98.9348L962.192 89.794L959.317 84.5186L956.01 85.0031L954.141 86.9935L953.106 84.4211L946.395 86.3626L947.174 88.562L948.49 91.0852L948.94 93.6597L949.399 96.9625L946.899 97.7456L948.135 94.9703L947.327 92.3181L946.065 88.863L945.055 86.5407L943.289 84.1696L940.563 85.2047L938.922 82.8041L936.875 83.4349L937.813 85.9351L939.908 89.7692L940.588 92.1953L939.246 94.1874L942.18 98.1504L940.032 97.1406L937.984 94.8962L935.461 97.746L936.625 95.5037L935.135 93.3784L933.469 96.564L931.098 96.6368L927.485 98.426L924.231 104.307L924.99 100.748L925.418 98.2521L925.744 95.877L927.311 92.8006L927.435 89.744L925.67 86.9919L923.88 84.4684L921.251 86.2867L918.65 86.3869L917.997 88.383L916.48 90.3751L917.82 86.5156L919.585 83.8634L921.704 80.4062L911.308 79.494L905.599 81.1369L904.796 77.9319L900.96 79.1936L898.657 78.3361L895.63 77.0488L892.929 77.8827L890.936 75.457L891.819 72.4042L888.792 72.0252L905.45 72.4783L930.791 67.2772L935.412 62.7126L934.326 59.3553L934.83 57.3337L937.354 54.8099L937.383 52.0345L947.1 47.6907L948.94 43.2728L947.303 41.1537L947.707 38.7574L943.871 35.3511L941.697 33.0777L939.026 36.9391L936.318 33.7593L930.442 29.3413L926.654 28.8882L919.99 34.0603L916.307 33.5074L918.852 31.5638L921.453 29.7708L922.362 26.4133L919.156 25.0775L916.381 24.0425L917.012 21.6947L912.596 20.1771L910.016 21.8665L908.754 25.6535L908.326 28.3803L905.047 28.8628L905.83 24.47L902.297 20.9115L898.558 25.2007L895.152 27.6265L894.392 30.8804L893.437 28.2574L893.057 25.3785L895.201 23.6617L891.82 24.0173L892.807 19.576L889.602 19.0914L887.127 15.9604L882.178 15.0055L875.033 18.7124L874.102 21.8434L873.797 25.3279L872.459 28.9863L872.386 31.3887L875.841 34.4396L873.593 34.5428L873.066 36.5349L873.47 39.0839L873.495 45.9024L876.27 47.8691L878.415 48.0208L877.483 49.9875L877.332 52.3586L874.328 49.9875L873.269 52.2609L873.142 55.3664L872.411 58.4173L873.093 60.9918L873.62 63.8454L874.029 67.5836L875.261 70.4567L875.843 72.8082L877.105 74.9526L877.836 77.4527L877.816 80.6577L876.202 83.3983L876.755 80.277L876.73 77.7535L876.075 75.5601L874.003 70.6888L873.122 67.8334L872.718 65.3353L871.858 62.7123L870.898 59.1283L871.377 56.8549L872.185 51.1515L872.288 48.5224L870.292 49.7119L869.103 52.8174L867.689 54.5089L866.253 56.2725L866.529 53.4971L868.674 50.7218L865.572 52.4133L862.945 55.0596L863.402 52.6648L862.24 54.985L862.468 58.6685L860.954 55.6177L860.575 53.2954L863.099 50.2915L864.109 47.5902L866.204 44.3324L867.288 41.7345L867.792 38.3517L865.422 33.7814L863.73 37.4689L855.832 44.9633L852.677 45.6487L855.25 43.1974L856.537 40.2443L857.75 38.3262L861.004 36.0782L860.22 32.746L857.519 32.5458L853.988 32.9733L852.267 35.0689L852.422 31.0552L857.623 29.5179L860.778 29.3389L862.996 28.634L864.387 26.0304L861.936 25.0496L864.662 23.1258L864.362 19.7997L866.329 19.4932L867.163 16.993L867.211 14.6219L864.791 10.2058L860.875 10.9401L856.987 12.6315L857.696 8.86963L856.277 6ZM792.322 17.0547L789.217 17.5333L786.011 17.6607L790.277 21.5455L792.017 24.5493L789.265 22.8324L786.92 22.3793L784.873 24.549L781.951 24.2729L781.344 28.3354L782.705 30.3825L785.607 27.8572L788.635 28.2128L785.559 31.748L789.094 34.4749L791.416 34.5963L795.202 32.8793L793.94 30.4302L796.006 30.987L798.633 30.485L802.825 28.3345L805.018 25.5103L805.397 23.0357L803.149 23.0611L802.091 25.4362L799.241 26.9753L798.685 24.1492L798.788 21.7001L798.736 17.6084L796.136 19.0225L793.387 20.5907L792.322 17.0547ZM768.269 26.4161L767.031 26.8458L765.212 28.9415L763.877 31.1894L766.603 32.4256L767.383 29.5468L768.269 26.4161ZM746.661 36.514L745.319 39.4672L748.731 39.8207L748.932 43.1296L751.885 44.7958L754.055 42.6218L755.469 40.6552L750.85 41.0594L751.126 38.4324L753.349 38.3323L751.051 37.7758L746.661 36.514ZM733.788 52.6197L733.483 55.5728L734.468 57.8699L733.432 59.917L730.175 57.3134L727.626 57.9698L727.853 61.6828L730.757 63.1709L728.056 65.3391L727.78 67.8877L725.182 68.9777L725.003 66.4287L721.316 64.8624L720.31 67.5381L722.603 71.2451L721.444 75.7413L720.005 72.7101L717.583 74.052L718.013 71.4775L715.36 68.5499L714.374 71.2997L712.077 70.8719L712.584 75.5399L709.606 73.825L706.953 73.2175L707.862 75.8405L702.205 75.2877L699.885 76.6725L703.37 77.2057L702.463 79.1494L710.715 77.5556L708.67 80.7118L708.319 83.6395L707.714 86.4207L707.61 88.7663L710.288 87.7313L710.311 84.4968L712.788 86.4947L714.755 85.1819L716.269 86.217L716.22 83.1855L718.769 85.0547L719.4 83.0861L719.855 79.877L723.694 80.1835L726.391 80.6621L725.991 77.5059L728.112 78.1134L729.245 74.8282L731.641 73.6211L732.528 70.5156L731.567 68.291L734.672 67.4101L734.876 65.0137L735.103 62.3849L737.271 59.9416L737.779 57.8459L736.666 54.9417L733.788 52.6197ZM745.147 59.8132L744.29 63.1705L746.079 66.2761L746.352 68.7996L746.003 71.876L748.577 74.7569L750.292 77.2316L753.624 77.4834L756.474 72.3369L758.495 70.1885L758.623 67.5888L756.222 64.7352L753.017 61.6336L750.038 62.0378L748.576 60.1198L745.147 59.8132ZM740.804 70.8466L742.421 74.9581L740.528 76.0927L740.956 78.4933L737.924 77.5322L738.555 80.0069L738.634 82.8372L737.472 80.0561L735.425 78.0151L736.111 80.0561L735.15 81.9742L731.062 83.236L729.47 86.4956L730.884 89.4721L728.765 90.4838L731.185 94.1656L734.267 95.4037L735.603 89.1165L736.136 91.4151L735.804 96.1377L737.042 99.5928L740.099 99.0421L743.958 95.3527L741.306 94.7725L744.087 92.4735L747.972 86.6218L748.677 84.6254L748.88 81.9474L747.972 79.6252L748.099 79.3521L746.734 78.899L745.373 76.6511L745.294 73.6979L743.681 71.7798L740.804 70.8466ZM928.251 83.0636L927.19 85.3312L928.934 89.2455L927.62 93.7377L930.118 95.8567L931.858 93.2082L933.856 91.0109L935.797 89.6241L934.235 88.1846L933.022 85.9622L931.938 83.6945L928.251 83.0636ZM725.707 92.6283L725.682 95.0775L725.53 97.3997L724.194 93.6867L721.872 94.5698L718.514 94.8277L718.615 97.3764L716.243 98.308L718.945 102.347L727.326 103.609L734.824 102.83L734.468 100.307L731.718 98.8669L728.662 97.072L727.326 94.6265L725.707 92.6283ZM698.345 98.9388L697.359 99.6966L697.638 102.546L698.091 106.615L700.462 106.033L700.69 102.999L700.139 100.275L698.345 98.9388ZM674.267 115.07L668.962 115.343L666.089 119.105L665.102 121.201L665.151 125.115L665.86 128.068L669.194 129.783L670.426 125.415L671.639 128.847L673.71 128.269L676.51 128.699L676.589 125.843L675.703 123.369L675.677 121.046L676.031 117.617L674.267 115.07ZM641.679 115.902L641.4 118.322L642.918 120.595L646.349 125.693L647.685 130.135L647.999 130.443L649.021 131.444L650.085 132.487L654.503 131.856L654.682 131.444L655.116 130.443L656.067 128.242L658.694 126.955L653.469 124.939L652.053 123.8L651.723 121.275L649.43 122.513L647.359 120.669L644.934 118.726L643.924 116.05L641.679 115.902ZM629.462 120.547L628.855 123.371L628.904 127.511L626.202 127.812L629.173 130.443L629.511 130.743L630.017 130.443L632.716 128.849L632.892 125.644L632.361 123.548L631.63 120.951L629.462 120.547ZM677.647 121.404L676.788 125.748L678.854 127.385L679.614 126.404L679.766 124.081L677.647 121.404ZM638.569 126.404L636.375 126.809L636.142 129.731L638.064 130.443L638.39 130.565L640.534 131.098L641.876 130.943L641.511 130.443L638.569 126.404ZM683.932 127.207L682.719 128.194L682.107 130.444L683.932 127.207ZM679.992 129.76L678.783 130.444L677.316 131.274L677.312 131.444L677.243 134.278L678.983 137.18L681.555 137.635L683.399 133.774L685.77 131.444L686.278 130.943L684.748 131.444L682.493 132.182L681.731 131.444L680.697 130.443L679.992 129.76ZM632.639 131.803L630.465 134.203L629.734 136.096L629.913 138.846L627.339 138.541L624.282 138.945L623.321 141.064L624.864 143.012L625.417 145.181L622.115 144.802L622.439 148.031L624.761 148.662L631.15 153.08L632.867 155.91L639.631 154.041L641.449 151.136L642.633 147.633L643.49 145.256L643.545 142.658L646.444 140.336L646.473 136.474L645.084 136.726L644.35 138.742L643.846 136.347L642.836 133.772L640.514 134.931L639.531 137.761L637.283 137.736L635.844 134.025L632.639 131.803ZM624.686 132.965L622.414 135.238L620.746 133.088L617.922 137.811L618.426 139.428L618.83 141.672L621.254 139.754L625.016 137.131L624.686 132.965ZM649.549 137.051L648.537 139.276L645.436 143.364L643.568 146.922L642.129 149.979L648.74 149.323L650.534 146.088L651.061 143.313L651.95 141.194L651.342 137.61L650.657 137.077L649.549 137.051ZM673.859 141.572L672.622 145.861L673.001 148.49L675.599 150.305L678.073 148.006L677.419 144.551L676.99 142.352L673.859 141.572ZM620.366 150.635L620.673 153.766L624.079 157.496V161.032L624.006 163.61L624.987 166.106L621.887 164.467L620.771 161.161L620.571 157.221L618.653 157.551L617.444 159.544L616.936 162.093L615.577 159.825L612.997 158.71L612.47 162.649L614.058 164.897L619.939 164.872L616.71 165.448L613.2 166.207L609.163 165.934L612.139 171.663L615.222 171.155L613.101 173.936L610.729 172.62L607.747 172.368L605.401 173.151L604.444 175.677L605.958 177.821L609.72 179.94L612.495 180.394L618.579 177.392L620.698 177.164L625.495 175.977L627.818 173.606L627.566 171.031L625.796 167.797L627.108 165.701L629.153 164.672L630.317 161.719L632.259 157.123L630.771 155.126L630.011 154.042L626.96 152.853L625.016 150.685L622.946 151.62L620.366 150.635ZM589.12 177.518L589.55 180.673L592.704 183.272L593.716 185.87L594.292 187.915L591.999 186.047L589.446 184.129L586.167 182.842L587.325 186.475L584.452 187.788L582.026 186.071L584.096 189.758L586.596 190.716L591.594 191.071L585.61 192.889L588.415 194.759L585.61 194.531L581.7 194.404L578.746 194.857L576.193 195.133L575.236 197.607L577.18 198.391L579.551 197.508L581.645 199.953L575.916 201.67L578.772 202.961L579.979 205.229L582.129 206.367L577.51 208.059L578.747 211.288L581.04 212.2L584.426 210.204L581.444 213.813L581.014 216.135L576.952 216.993L574.832 217.801L573.823 220.405L583.692 219.694L583.239 222.525L584.954 225.478L585.989 219.542L587.123 217.599L590.86 213.335L591.821 211.062L594.799 209.095L594.065 211.766L597.624 212.6L600.227 210.76L603.559 210.657L607.444 209.322L606.208 205.689L606.862 202.706L604.946 198.948L605.68 196.425L608.934 195.512L609.11 192.989L608.376 189.429L608.003 188.419L606.661 188.346L606.335 190.895L604.388 189.633L605.018 185.191L604.339 182.213L602.243 184.18L601.741 187.99L600.858 185.668L601.208 182.893L600.98 178.322L598.836 178.401L597.849 181.304L596.109 177.893L595.355 181.581L596.158 184.03L591.82 179.21L589.12 177.518ZM554.008 205.915L548.959 206.669L547.901 208.691L545.653 212.349L544.592 217.195L540.934 219.316L538.533 222.17L537.375 226.435L535.984 229.841L535.377 232.744L535.456 235.244L535.481 237.896L536.061 240.219L538.03 239.135L538.71 237.615L539.47 234.539L539.089 231.433L541.233 231.533L544.843 229.719L547.495 227.218L547.851 224.896L549.817 221.234L551.305 218.886L553.149 212.427L553.805 209.322L554.008 205.915ZM596.388 217.728L593.661 218.611L591.97 220.529L591.265 222.929L591.313 225.478L594.04 224.088L596.161 221.338L596.618 218.586L596.388 217.728ZM560.951 229.136L559.867 231.408L562.568 233.956L564.334 236.353L566.857 237.413L569.535 237.038L569.714 234.286L569.407 231.029L568.802 230.576L567.514 231.181L564.335 230.65L560.951 229.136ZM527.052 231.384L522.912 233.425L523.145 234.57L523.493 236.279L525.031 238.73L525.386 241.457L528.437 246.174L526.091 244.129L524.503 246.277L522.838 244.129L520.719 244.482L522.33 246.627V249.33L521.349 251.327L520.46 248.95L518.04 249.201L515.767 251.475L514.657 247.662L512.159 248.17L512.111 251.375L513.093 253.875L510.826 251.223L510.422 248.546L507.443 252.589L509.863 253.521L507.339 255.942L506.279 259.653L506.757 260.335L507.591 263.567L509.914 264.45L513.55 262.686L514.611 258.747L514.887 255.995L516.375 258.698L518.623 255.438L518.924 257.864L521.673 257.661L522.838 254.882L525.791 253.446L524.503 250.868L528.64 251.126L528.695 253.572L528.72 256.023L526.172 257.812L523.898 258.669L521.172 260.513L519.254 263.088L527.178 265.537L534.854 258.951L536.012 252.562L533.414 251.023L532.15 247.972L534.627 244.284L530.814 245.394L531.571 242.998L531.875 238.709L529.653 240.928L530.209 238.305L527.256 234.617L527.052 231.384ZM548.785 232.394L545.758 233.73L542.701 233.351L540.758 238.019L539.723 240.874L540.279 243.497L537.529 246.075L537.578 249.378L539.117 251.351L543.232 251.019L545.733 254.175L542.65 251.927L537.678 252.587L537.781 256.374L539.066 258.39L541.718 259.829L538.13 261.392L538.486 265.056L534.546 264.977L531.947 266.924L531.269 268.945L531.014 269.7L532.84 269.945L533.84 270.079L535.985 272.12L533.209 273.436L535.985 274.042L532.883 275.985L530.205 280.274L528.894 284.691L527.277 286.861L527.429 289.336L527.4 291.736L529.874 290.095L531.087 287.039L533.41 284.668L533.056 282.216L535.027 281.488L537.375 278.657L541.767 274.013L541.588 276.995L538.733 279.692L537.551 282.773L542.801 283.735L546.004 286.485L547.696 282.927L546.991 280.702L548.53 278.153L551.102 278.608L549.841 276.639L552.089 273.559L551.684 271.034L552.593 273.356L552.671 276.714L553.021 279.036L554.968 279.288L556.201 275.225L557.691 272.223L557.958 269.943L557.994 269.612L558.073 268.944L558.17 268.106L562.104 265.178L565.717 263.865L567.913 263.84L570.284 263.889L569.88 261.644V259.219L570.915 257.125L571.173 254.299L571.349 251.371L569.784 250.359L569.454 247.91L569.81 245.465L569.331 242.887L566.831 243.117L566.048 240.416L562.212 239.099L560.19 236.631L560.724 239.529L556.38 242.383L556.283 245.184L559.009 247.358L560.32 250.133L557.14 250.005L555.798 253.742L557.292 256.824L555.296 255.56L552.595 257.478L550.554 259.195L549.487 261.162L549.819 264.898L547.798 267.803L548.684 265.151L548.457 262.78L548.053 259.526L550.119 258.086L551.356 256.088L553.151 251.041L553.451 248.492L552.244 246.348L550.779 248.719L548.176 250.967L549.566 247.28L549.745 244.454L550.425 240.215L549.868 237.488L549.568 234.86L548.785 232.394ZM588.589 232.394L588.316 234.687L590.259 236.457L587.384 235.373L585.896 233.148L587.157 237.009L588.218 241.027L590.89 242.463L593.064 238.877L595.46 236.127L592.808 232.898L588.589 232.394ZM521.827 237.921L518.85 238.374L518.544 240.923L522.128 241.984L523.091 239.789L521.827 237.921ZM583.442 238.931L580.466 243.269L578.696 245.365L578.396 248.066L586.574 245.795L585.134 241.58L584.478 241.199L583.442 238.931ZM567.692 266.619L562.264 267.073L561.061 268.946L560.903 269.192L560.688 269.946L560.192 271.692L559.867 274.547L559.989 276.44L560.471 278.915L563.473 276.188L568.499 275.405L567.389 272.753L569.405 271.343L568.894 269.946L568.571 269.07L568.529 268.948L567.692 266.619ZM528.034 275.936L524.1 277.145L522.913 281.36L520.212 284.112L521.124 281.182L520.72 278.836L517.663 278.715L517.742 281.49L512.589 280.455L513.925 282.371L507.995 283.457L511.279 286.611L509.765 290.526L507.517 287.672L506.204 291.457L507.896 293.957L504.337 295.955L503.829 300.115L506.984 299.994L509.736 297.849L512.492 297.316L515.873 294.87L516.326 290.957L517.687 287.826L518.803 285.528L519.201 288.886L518.826 291.587L524.984 285.907L526.676 282.779L530.865 276.54L528.034 275.936ZM492.066 291.229L488.634 293.429L487.324 291.481L482.3 295.929L485.681 297.112L482.576 298.956L481.57 301.505L481.718 304.28L484.145 301.608L482.252 306.577L481.315 309.255L483.158 311.6L484.096 309.1L483.766 306.655L486.338 307.838L489.317 308.291L488.864 305.994L492.448 305.767L492.244 302.868L494.039 299.886L498.432 299.481L501.282 294.866L499.794 292.795L497.825 292.917L495.657 294.737L492.066 291.229ZM477.074 302.614L475.66 304.837L477 306.78L477.429 310.038L475.738 308.12L472.834 310.59L472.503 313.317L474.525 315.388L477.355 312.735L479.953 308.347L480.48 304.862L477.074 302.614ZM469.63 307.133L468.896 307.638L468.796 310.339L465.512 316.575L464.881 318.872L464.452 321.47L463.62 323.896L463.392 326.972L461.927 330.28L464.605 328.485L467.859 325.862L469.021 323.866L468.616 321.294L466.999 318.089L469.072 320.337L471.091 320.234L471.521 316.472L470.89 313.193L471.418 309.935L469.63 307.133ZM556.235 308.395L546.465 308.647L544.192 310.442L548.082 311.753L550.606 309.381L553.18 310.694L556.26 311.172L557.498 309.1L556.235 308.395ZM536.215 309.151L534.223 312.709L537.477 314.075L537.502 311.778L536.215 309.151ZM531.27 313.444L528.543 314.352L528.213 316.801L530.26 318.493L533.236 318.518L537.023 317.911L538.463 315.742L537.328 316.221L534.322 315.362L531.27 313.444ZM512.89 358.2L509.888 361.68L512.994 362.239L514.128 359.36L512.89 358.2ZM511.302 380.489L509.636 381.395L508.374 385.079L504.89 383.364L503.933 386.421L505.269 388.614L507.769 391.186L508.527 393.913L510.017 389.979L509.157 387.229L510.493 384.6L511.302 380.489ZM471.572 439.452L470.989 441.775L467.987 440.64L468.796 443.642L468.869 446.695L471.521 445.156L472.103 441.621L471.572 439.452ZM468.845 453.029L466.192 454.396L466.144 457.98L468.669 459.265L470.009 457.324L470.335 454.293L470.084 453.587L468.845 453.029ZM460.641 459.744L455.77 463.23L458.192 462.9L458.926 465.705L454.962 468.806L454.434 472.646L451.709 476.078L459.532 472.138L460.845 470.851L462.989 469.615L459.759 466.435L461.476 462.347L460.641 459.744ZM470.513 474.435L468.521 474.687L466.597 475.674L465.212 476.984L463.95 478.375L463.571 475.648L458.344 477.818L456.905 481.629L455.012 484.711L458.221 485.268L456.702 487.51L458.749 486.756L462.915 481.555L466.499 478.73L470.512 476.557L470.513 474.435ZM441.534 502.104L436.815 502.483L435.553 505.154L434.77 508.592L437.772 508.819L440.499 510.178L441.913 507.299L441.385 504.602L442.923 502.582L441.534 502.104ZM453.118 512.248L451.202 514.192L450.999 516.641L449.989 519.772H452.083L450.595 523.608L449.436 525.575L449.989 529.385L446.985 531.837L447.088 537.442L445.748 540.37L450.164 538.048L451.377 536.1L451.201 533.68L455.139 531.077L458.723 527.8L458.771 523.333L458.495 520.729L456.677 516.844L454.532 515.302L453.118 512.248ZM451.102 541.227L447.893 542.514L447.317 545.04L447.545 547.563L445.928 551.222L448.93 553.47L452.287 552.386L454.836 548.925L452.77 548.292L451.912 547.942L453.401 544.61L451.102 541.227ZM435.981 548.747L434.77 549.811L429.744 549.682L427.981 553.567L431.461 553.825L433.557 552.231L435.475 550.717L435.981 548.747ZM413.564 561.446L408.67 562.352L405.513 564.778L402.486 565.128L401.046 568.112L400.967 571.114L403.694 569.571L404.526 568.866L406.499 566.341L408.767 565.46L413.564 561.446ZM415.764 563.866L404.154 570.403L407.965 569.019L410.207 567.075L412.836 567.046L413.16 566.796L412.229 569.95L414.68 571.82L417.602 569.601L419.018 567.531L415.764 563.866ZM421.363 584.464L420.51 584.581L416.799 585.095L416.291 587.472L419.674 589.187L420.51 589.011L421.51 588.802L422.326 588.63L422.599 586.786L421.507 584.74L421.363 584.464ZM412.658 586.964L411.671 589.966L413.363 592.062L417.125 591.405L415.408 593.402L416.847 598.525L419.195 597.845L420.51 598.488L421.509 598.976L424.348 600.367L425.432 595.748L421.509 595.796H421.443L420.509 594.314L419.849 591.626L415.333 588.575L412.658 586.964ZM424.471 589.083L422.527 593.071L425.683 595.523L426.742 591.835L424.471 589.083ZM371.285 635.86L370.049 639.091L372.724 639.569L372.798 637.577L371.285 635.86ZM332.061 654.64L327.668 657.115L321.633 661.857L317.383 662.679L314.846 663.169L312.65 664.46L315.83 665.644L317.799 664.761L321.836 664.13L319.287 665.722L322.545 665.294L329.739 664.583L332.791 660.925L332.313 657.089L332.061 654.64ZM340.743 667.083L339.934 669.406L343.77 669.583L344.805 668.07L343.469 667.867L340.743 667.083ZM337.741 667.285L334.205 668.044L333.371 670.464L331.278 668.497L325.168 670.794L322.418 671.347L327.313 673.369L324.991 673.976L318.33 674.527L317.383 675.355L313.938 678.369L312.395 682.099L316.438 684.826L319.592 685.133L323.176 682.934L326.43 682.254L328.503 681.041L333.624 680.893L342.739 677.283L345.288 674.986L343.923 674.504L341.852 671.373L339.481 672.082L337.741 667.285ZM302.425 681.345L299.4 684.121L296.214 684.703L293.995 686.039L294.222 688.361L300.632 690.935L298.818 691.744L300.937 693.158L305.078 693.029L308.712 688.16L306.691 685.23L305.906 682.129L302.425 681.345ZM318.177 696.994L317.382 698.925L316.712 700.552L313.71 698.837L311.64 700.125L314.238 705.576L317.093 706.888L322.392 705.627L321.81 702.322L319.488 700.001L318.177 696.994ZM305.857 700.277L303.382 700.933L301.238 703.457L299.271 704.388L300.581 707.898L308.431 706.967L307.853 704.217L306.536 701.109L305.857 700.277ZM308.583 701.49L308.558 705.553L312.822 706.281L313.154 705.148L311.818 703.586L308.583 701.49ZM286.044 709.59L286.724 712.695L285.032 714.889V717.34L283.696 715.17L283.007 714.936L282.007 714.596L279.911 713.885L279.782 716.557L281.148 721.629L282.007 721.525L282.696 721.441L283.007 721.404L286.148 721.023L288.616 719.662L288.697 715.674L287.911 714.639L288.316 711.611L286.044 709.59ZM297.15 711.305L293.089 712.646L291.472 711.482L290.105 714.16L291.369 716.279L295.357 716.709L297.554 714.312L297.15 711.305ZM255.677 729.305L256.052 732.184L258.3 735.713L258.834 733.471L261.23 732.129L260.671 729.631L258.226 730.44L257.191 730.69L255.677 729.305ZM257.572 738.44L253.429 740.106L250.98 742.001L250.3 744.249L253.429 743.868L259.691 742.379L259.464 739.604L257.572 738.44ZM225.084 761.739L227.46 764.718L230.235 765.349L236.063 765.048L234.071 763.333L232.38 761.843L225.084 761.739ZM222.032 762.321L219.832 762.548L217.866 764.087L216.426 767.321L217.186 770.017L217.083 773.478L216.403 775.874L218.522 776.101L225.108 770.017L224.833 767.976L223.571 764.97L222.032 762.321ZM206.758 766.286L205.571 768.884L207.696 768.982L208.352 768.658L206.758 766.286ZM214.055 767.321L210.672 768.351L209.84 770.397L211.305 770.22L213.376 770.017L214.055 767.321ZM212.034 771.966L208.297 772.112L206.079 773.907L204.94 776.255L208.198 777.87L204.26 777.62L205.422 780.218L211.629 780.897L214.637 779.765L215.09 777.264L215.948 775.016L213.424 773.778L212.034 771.966ZM184.371 792.105L183.74 794.831L185.707 796.902L186.264 800.613L188.99 796.55L189.039 793.292L188.562 792.79L186.894 794.224L184.371 792.105ZM181.363 802.709L177.957 803.09L176.065 805.865L178.84 808.211L178.238 811.568L183.055 811.035L186.24 808.641L188.158 807.224L191.436 807.353L181.363 802.709ZM177.479 818.762L175.512 820.328L177.252 821.285L177.479 818.762ZM173.92 859.124L173.516 862.708L173.086 864.981L172.051 861.549L170.434 865.053L170.158 867.909L170.232 870.887L171.119 868.411L173.59 869.245L177.002 867.657L177.252 860.764L175.739 859.553L174.955 862.432L173.92 859.124ZM166.6 868.184L164 871.241L164.809 873.968L167.609 872.223L166.979 871.138L166.6 868.184ZM169.252 879.544L170.514 881.614L171.494 884.089L172.811 886.308L173.846 885.651L173.086 882.374L171.598 880.223L169.252 879.544ZM201.181 901.655L198.984 905.595L197.066 907.511L194.24 909.228L190.425 912.308L188.53 912.259L190.48 915.616L191.991 918.595L193.835 921.345L198.757 921.671L201.077 919.704L201.837 914.956L202.646 909.583L203.15 903.095L201.181 901.655ZM168.466 902.39L167.155 905.417L167.279 907.941L169.501 905.343L169.3 904.736L168.466 902.39ZM174.275 911.2L173.945 913.492L175.408 915.538L177.577 919.324L179.673 920.433L178.917 922.884L181.921 922.632L182.576 920.206L180.708 915.843L175.861 913.749L174.275 911.2ZM173.564 920.586L172.431 923.668L172.302 926.064L172.503 928.943L171.064 932.197L171.119 934.849L172.732 937.674L175.107 939.217L177.375 940.025L177.404 937.674L176.72 935.027L175.408 932.931L177.404 932.097L176.597 928.035L174.171 923.619L173.564 920.586ZM181.363 947.041L180.935 949.314L181.792 952.09L180.585 949.461L178.992 952.015L179.9 954.51L182.956 956.353L184.015 953.652L183.863 950.699L182.4 949.719L181.363 947.041ZM197.219 951.586L195.73 952.217L192.851 952.42L189.72 954.461L186.945 956.709L187.298 959.688L190.859 960.165L191.086 964.03L194.492 963.651L196.51 964.735L196.031 961.506L198.199 957.566L198.861 952.291L197.219 951.586ZM183.888 958.527L183.006 961.707L181.314 963.903L181.363 966.731L182.98 971.805L183.636 974.328L186.968 974.855L190.099 974.328L190.73 971.449L190.804 969.176L190.779 968.447L189.316 964.256L187.22 960.367L183.888 958.527ZM176.142 966.326L176.369 969.127L173.539 972.688L173.386 974.96L177.908 975.891L175.31 979.501L174.146 984.249L174.501 986.797L175.482 989.297L177.632 985.432L178.312 982.078L176.168 984.168L177.578 980.412L177.859 977.711L180.004 977.355L181.994 976.902L182.375 979.451L180.861 981.698L183.685 979.298L183.183 976.773L182.779 976.22L181.088 972.533L177.633 968.472L176.142 966.326ZM176.773 1003.63L175.763 1006.16L175.457 1008.4L175.156 1011.3L176.847 1014.21L174.826 1013.53L172.48 1019.79L173.086 1024.16L176.976 1024.79L178.84 1020.47L179.299 1016.79L178.992 1013.78L178.943 1013.25L179.27 1010.75L178.006 1007.49L176.773 1003.63ZM209.612 1015.7L206.909 1016.2L205.771 1019.43L208.827 1020.62L211.023 1019.94L213.019 1017.13L209.612 1015.7ZM184.774 1018.73L182.852 1021.93L186.11 1023.12L186.159 1020.87L184.774 1018.73ZM192.923 1027.74L194.112 1030.34L197.469 1032.81L198.757 1030.54L198.253 1029.17L196.483 1028.45L192.923 1027.74ZM413.361 1034.3L411.748 1035.14L410.689 1037.64L413.539 1035.59L413.361 1034.3ZM430.551 1035.41L425.252 1037.08L424.168 1038.82L429.24 1036.29L431.942 1037.35L430.551 1035.41ZM431.942 1037.35L432.623 1038.31L433.731 1041.85L435.27 1044.07L434.111 1040.28L433.707 1038.06L431.942 1037.35ZM424.168 1038.82L423.965 1038.92L423.886 1039.25L424.168 1038.82ZM423.886 1039.25L422.223 1041.92L423.135 1042.68L423.886 1039.25ZM418.564 1036.47L416.824 1039.9L418.49 1041.97L419.9 1039.47L420.305 1037.13L420.101 1037.23L418.564 1036.47Z" fill="black"/>
</svg>
