<svg width="1233" height="1233" viewBox="0 0 1233 1233" fill="none" xmlns="http://www.w3.org/2000/svg">
<g clip-path="url(#clip0_33_13)">
<path d="M223.537 632.841L221.517 635.451L219.227 640.341L217.577 641.121L214.967 640.151L215.107 637.941L215.017 636.651L223.537 632.841ZM176.977 607.731L171.767 602.841L170.987 600.161L172.637 597.351L176.707 589.921L180.097 592.071L181.097 595.991L184.307 599.031L183.757 601.411L186.467 602.701L188.437 604.261L189.627 605.411L190.587 608.041L189.967 611.081L183.877 611.061L178.707 607.461L176.977 607.731ZM173.547 589.951L169.427 596.471L162.977 598.781L158.817 598.871L153.557 595.551L150.627 591.811L152.637 588.671L155.977 584.521L162.037 582.911L160.617 578.301L161.387 576.961L165.127 579.621L168.277 584.301L173.547 589.951ZM149.297 576.581L153.757 578.711L154.967 580.791L155.007 582.001L153.607 583.891L150.457 587.771L148.397 590.631L143.867 588.651L140.347 584.271L141.767 581.461L143.507 577.721L148.237 578.401L149.297 576.581ZM132.327 573.311L133.337 573.741L134.837 573.371L136.007 573.411L136.967 574.161L138.757 573.741L139.837 573.661L140.337 574.991L142.667 576.531L141.937 577.551L141.247 578.061L139.467 581.291L136.267 580.461L131.477 576.411L132.327 573.311ZM81.3066 485.941L77.6466 491.441V494.211L73.9466 495.691L70.0566 500.361L66.3066 502.531L65.2066 495.131L66.0766 493.701L63.3366 491.571L65.3966 485.471L66.0866 481.681L70.8866 480.201L74.3866 475.091L78.6366 475.531L80.4466 475.281L87.5066 476.161L81.3066 485.941ZM81.2966 462.881L83.5466 466.531L87.1266 468.411L89.5066 470.871L88.8966 473.501L86.4266 474.291L81.9466 473.131L81.2966 467.991L77.9666 465.781L78.5466 463.911L81.2966 462.881ZM34.6666 454.671L35.8566 457.221L33.3466 460.601L36.0866 463.141L35.6766 466.431L36.8666 467.731L35.1766 469.401L35.2666 471.761L32.7966 473.291L30.5066 472.691V471.161L28.6766 469.771L27.3066 463.941L34.6666 454.671ZM35.9466 450.321L40.1566 452.821L41.2566 458.231L39.8366 458.511L36.9566 457.541L37.5966 455.551L35.0866 453.191L35.9466 450.321ZM24.2366 445.511L31.5566 451.251L32.9766 453.801L25.0166 464.671L22.8666 463.651L20.8066 463.141L19.6166 464.111L22.1366 465.411L23.2766 469.441L17.8366 468.141V469.021L21.2166 472.121L23.2266 473.601L25.5566 473.921L26.8866 476.091L23.0466 479.881L14.1766 477.851L5.57659 466.841L4.25659 462.721L4.66659 460.311L8.27659 456.611L14.4966 453.371L15.9566 449.621L24.2366 445.511ZM59.0066 438.911L62.0666 439.291L63.2866 440.471L58.5266 446.441L50.0666 445.281L50.4366 443.611L52.4466 442.691L53.4966 441.171L59.0066 438.911ZM27.9866 431.951L32.2366 437.551L33.9266 441.251L33.6066 447.271L31.4666 448.711L24.6366 443.911L20.6666 445.241L24.5866 440.391L27.9866 431.951ZM269.217 162.781L288.287 163.971L290.327 164.771L292.707 166.961L295.907 166.841L298.677 165.161L307.017 167.271L310.937 165.781L315.167 169.301L317.777 167.471L322.177 168.101L323.977 166.861L330.047 169.641L333.967 167.421L336.727 170.721L337.687 176.961L333.457 185.731L334.347 192.161L336.097 194.421L343.367 194.501L351.237 197.121L356.027 192.801L357.447 185.591L361.677 183.681L364.567 183.901L367.667 186.851L371.487 188.101L373.367 192.911L378.967 195.271L382.027 194.691L383.627 195.591L386.327 201.591L389.267 202.541L406.337 202.231L408.347 203.071L410.947 206.601L414.497 208.241L418.607 212.791H417.477L416.687 214.921L386.217 231.701L373.617 249.561L376.507 251.691L375.457 253.821L377.557 257.551L375.457 263.681L373.617 264.741L374.677 273.541L382.567 277.541L376.527 284.461L383.367 291.661L384.427 297.251L383.377 300.451L377.597 302.311L378.397 311.371L381.287 315.101L380.507 320.421L375.517 323.081V325.211L378.407 327.081L381.297 326.021V329.211L383.397 330.281V333.211L386.287 334.011V335.871L390.227 336.941L391.277 339.071L393.377 336.941L394.167 340.131L393.377 341.991L396.277 347.051L395.227 348.111L394.177 347.051L385.507 352.901L384.457 359.021L381.307 359.821L380.517 361.951L366.857 367.791L360.817 373.641L361.867 374.971L353.987 378.691L351.097 381.611L348.207 385.861L351.887 392.511L347.427 396.491L349.277 405.531L346.387 409.251H341.397L339.557 410.311H335.357V409.251H334.307L328.787 412.431L327.737 411.371H324.587L323.797 413.501L318.017 416.421H315.917L313.817 418.281H310.137L309.087 419.341L313.037 430.501L310.147 431.301L306.987 424.391V417.221L303.307 410.311L302.247 402.601L299.347 394.631L301.177 385.861L300.387 383.471L296.187 382.671L291.457 384.791H288.307L274.907 392.491H272.017L270.697 389.571L274.897 381.601L273.847 378.681L272.797 377.881L265.967 378.671L254.407 376.801L250.207 377.861L247.317 381.581L240.487 385.831L232.607 386.621L229.717 384.761L215.797 388.471L210.017 392.451L206.077 391.381L209.237 395.641L212.127 396.441L212.917 399.361L215.017 398.571L217.117 401.231L217.907 404.421L215.017 408.401L220.797 409.201L223.697 415.311L222.917 421.421L220.027 425.141L213.987 427.261L212.937 432.311L211.097 433.111L210.047 435.231L218.987 445.061L218.157 447.371L218.987 449.051L211.107 455.951L205.067 457.801L201.387 460.981L193.507 463.891L189.837 473.711L183.797 484.581V487.761H185.637L193.527 496.521L196.417 497.581L197.207 495.731L196.417 493.341L197.207 492.551L199.577 494.411L200.367 493.351V488.581L202.207 484.601L210.087 485.401L214.027 481.691L217.177 482.491L221.907 486.741L226.897 485.421L228.737 491.521L230.837 490.461L232.677 491.521L233.467 495.771L237.677 496.571L252.127 484.641L260.007 475.631L264.207 473.781H268.757L267.887 474.581L273.937 480.691V484.671L272.097 487.851V493.421L280.507 491.571L282.877 493.431H284.717L287.607 497.681L286.557 500.601L283.667 502.451V504.571L279.727 507.481L278.677 510.401L281.837 514.381L279.737 523.391L276.847 525.241V526.301L272.117 525.241L269.757 528.151L266.077 527.091L263.157 529.911V531.761H261.847L260.007 536.001L263.167 539.711V542.091H261.857V543.941L259.237 547.651L254.507 550.831V552.951L249.257 564.601L247.417 565.661H242.427L234.537 559.561L226.917 562.731L222.977 560.871H219.037L212.217 570.671L208.277 579.411L196.457 585.231V590.261L202.247 596.091L206.197 602.181L223.027 611.991L229.857 612.791L233.537 614.911L233.737 617.301L231.677 619.611L231.177 622.981L227.927 628.881L216.767 634.041L213.837 634.551L209.767 632.341L207.437 627.821L202.037 622.611L189.647 613.521L191.797 611.811L192.617 606.181H195.087L196.227 604.661L193.717 604.291L193.127 600.691H192.027L190.517 603.831L189.237 602.811L189.467 600.731L185.807 600.271V597.871L182.657 595.151L181.607 591.001L174.017 587.221L174.107 585.651L171.957 583.201L170.217 582.971L168.297 578.541L166.377 578.631L160.937 574.981L158.377 576.321L159.887 581.261L157.277 581.861L156.317 580.891L157.557 578.911L153.307 576.421L152.297 576.191L148.637 574.301L150.647 571.301L149.917 569.081L148.227 569.961L147.817 573.151L145.027 573.101L145.717 574.951L144.297 575.601L142.467 574.171L139.957 571.771L137.487 572.741L135.937 571.911L135.067 570.851L133.967 572.281L130.587 570.621L130.547 574.411L117.697 568.361L115.777 568.641L114.267 570.761L110.787 570.351L108.727 572.941L106.667 573.401L105.387 569.611L104.287 565.461L106.987 557.981L105.887 551.611L91.4366 536.321L88.6966 534.561L87.3266 532.441L83.8066 532.261L80.6966 530.091L77.7666 531.891L76.4866 529.721L74.0166 531.621L72.4166 530.561L73.0566 528.301L71.5066 521.971L74.9366 518.691L73.3366 516.661L73.6166 514.491L74.4866 514.031L75.9966 514.821L78.5166 514.131L78.8866 512.741L83.9166 509.511L84.4166 508.591L80.8066 509.151L78.6566 504.111L80.2566 500.411L81.4466 490.381L83.5966 489.361L88.4466 483.531L90.7366 477.521L92.0666 470.031L88.6866 467.861L90.7466 466.611L89.8366 463.971L87.1866 464.251L86.1366 466.051L81.6566 461.241L77.1266 462.771L76.3966 466.931L80.1066 468.641L80.3766 472.621L78.3666 473.451L74.8966 472.291L73.1166 472.941L71.2866 477.061L65.1566 479.741L62.4166 482.701L60.3566 484.091L59.1666 488.161L60.3066 491.401L58.4366 491.861L53.8666 487.841L51.4866 480.861L53.8166 481.141L56.1466 478.271L57.8366 468.831L58.6566 466.291L57.2366 465.731L54.6266 470.591L48.6366 470.961L48.8166 461.991L47.7166 460.741L47.1266 453.111L50.6066 450.801L55.3166 447.791L60.2066 447.701L64.0966 442.611L68.0266 441.411V437.061L71.7266 436.321L71.8166 435.441L69.8466 434.241L67.7466 434.561L62.5366 437.991L57.6866 437.161L52.3866 440.261L50.1466 439.011L48.3666 440.721L48.2266 442.891L41.8666 447.011L38.3466 447.941L36.0166 444.521L36.2466 440.351L34.4666 436.001L33.0966 436.321L30.1266 432.431L31.1366 428.161L45.9866 399.711L55.0266 377.571L65.6666 362.621L71.9366 356.821L80.8766 356.451L96.4866 358.151L128.867 340.741L137.337 328.161L140.587 330.121L145.797 328.911L152.357 331.191L158.807 330.511L163.547 335.191L166.827 336.161L175.317 331.891L181.487 333.751L185.247 333.181L190.987 330.671L192.677 327.081L198.397 329.911L201.267 329.801L205.487 320.431L204.937 318.941L203.137 319.921L203.987 315.921L206.917 316.281L208.817 317.921L207.417 320.741L209.507 323.141L214.177 321.371L213.667 325.181L215.787 326.321L217.287 326.851L222.897 325.421L225.987 323.051L228.637 322.951L227.557 313.501L228.947 305.651L227.497 294.281L229.927 273.721L215.837 269.031L213.117 265.981L211.457 261.191L202.647 257.691L199.097 252.951L191.037 251.721L188.687 248.411L187.207 242.421L191.187 240.151L194.217 234.971L204.907 233.661L205.237 231.531L203.667 227.691L207.787 227.541L209.577 231.571L214.127 225.181L214.877 227.021L212.957 232.041L213.657 232.541L218.817 232.311L220.477 228.411L226.717 233.371L228.557 232.051L230.097 227.001L232.497 223.861L236.907 221.741L238.227 214.141L236.927 206.641L241.297 199.211L238.057 189.601L234.207 185.431L230.897 173.431L229.367 161.261L269.217 162.781Z" fill="black"/>
<path d="M215.207 695.871L217.037 695.961L216.987 696.831L214.377 697.571L215.207 695.871ZM220.877 689.421L222.507 693.161L223.887 694.581L224.027 697.161L222.197 700.481L222.467 695.231L219.317 690.991L220.877 689.421ZM213.827 687.951L215.977 689.101L210.447 693.711L209.397 699.011L207.617 696.021L208.257 694.131L213.827 687.951ZM254.297 646.931L254.707 649.751L258.177 650.731L266.087 649.891L270.387 651.591L264.147 658.151L263.727 660.251L265.667 660.951L269.837 667.301L261.957 677.871L264.017 682.101L260.427 692.011L255.547 690.211L248.327 679.481L246.317 678.471L237.447 683.311L229.447 690.271L228.167 690.451L227.157 688.841L228.487 687.091L229.357 687.871L232.027 686.431L232.687 684.421L236.437 680.461L236.347 676.871L237.767 675.771L238.227 672.781L243.207 667.711L242.617 664.251L244.907 651.711L246.967 651.761L249.027 648.811L254.297 646.931Z" fill="black"/>
<path d="M275.517 727.361L277.487 727.501L277.397 729.341H275.157L275.517 727.361ZM237.287 636.511L241.307 640.571L241.717 643.341L238.237 647.351L233.937 649.891L234.257 650.811L232.747 651.361L230.777 650.301L227.257 649.981L221.317 645.881L222.417 641.641L224.517 638.551L230.007 637.631L232.247 637.541L235.127 637.261L237.287 636.511ZM233.717 620.911L235.137 624.791L235.847 626.001V628.181L237.357 631.921L237.707 633.941L236.307 635.341L233.977 635.921L225.357 635.211L232.257 624.291L233.717 620.911ZM233.727 617.281L233.527 614.891L229.847 612.771L223.017 611.971L206.197 602.161L202.247 596.071L196.467 590.241V585.211L208.287 579.401L212.227 570.661L219.057 560.871H222.997L226.937 562.731L234.557 559.561L242.447 565.661H247.437L249.277 564.601L254.527 552.951V550.831L259.257 547.661L261.887 543.951V542.101H263.197V539.721L260.037 536.011L261.877 531.771H263.187L263.157 529.911L266.047 527.001L269.727 528.061L272.087 525.151L276.817 526.211V525.151L279.707 523.301L281.807 514.291L278.647 510.311L279.697 507.401L283.637 504.491V502.371L286.527 500.521L287.577 497.601L284.687 493.351H282.847L280.477 491.491L272.067 493.341V487.771L273.907 484.591V480.611L267.857 474.501L268.727 473.711H264.177L259.977 475.561L252.097 484.571L237.657 496.501L233.457 495.701L232.667 491.461L230.827 490.401L228.727 491.461L226.887 485.361L221.897 486.681L217.167 482.431L214.017 481.631L210.077 485.341L202.197 484.541L200.357 488.521V493.291L199.567 494.351L197.197 492.491L196.407 493.291L197.197 495.681L196.407 497.541L193.517 496.481L185.627 487.721H183.787V484.541L189.827 473.671L193.497 463.851L201.377 460.941L205.057 457.761L211.097 455.911L218.977 449.011L218.147 447.331L218.977 445.021L210.037 435.191L211.087 433.071L212.927 432.281L213.977 427.241L220.017 425.121L222.907 421.401L223.687 415.291L220.797 409.181L215.017 408.381L217.907 404.401L217.117 401.211L215.017 398.551L212.917 399.351L212.127 396.431L209.237 395.631L206.077 391.381L210.017 392.451L215.797 388.471L229.717 384.761L232.607 386.621L240.487 385.831L247.317 381.581L250.207 377.861L254.407 376.801L265.967 378.671L272.797 377.881L273.847 378.681L274.897 381.611L270.697 389.581L272.017 392.501H274.907L288.307 384.801H291.457L296.187 382.681L300.397 383.481L301.187 385.871L299.357 394.641L302.257 402.621L303.317 410.331L306.997 417.241L307.007 424.411L310.167 431.321L313.057 430.531L309.107 419.371L310.157 418.311H313.837L315.937 416.451H318.037L323.817 413.531L324.607 411.411H327.757L328.807 412.471L334.327 409.291H335.377V410.351L346.417 409.301L349.307 410.361L351.937 415.411L351.947 422.581L352.997 423.381L357.987 424.451L365.077 417.281H370.597L372.967 419.411L380.587 422.601V425.261L376.647 428.181L373.767 438.001L369.827 436.141L368.777 439.061L361.947 443.301L360.897 447.021L356.167 449.141L354.067 452.061V457.901L351.967 464.001L351.187 474.611L353.037 481.781L357.247 486.821L353.047 492.651V496.631L355.417 498.491L352.007 502.471L351.217 506.451L349.377 505.651L348.327 507.501L353.067 514.401L354.127 521.291L358.067 522.091L365.157 516.531L369.887 519.181L375.667 518.391L378.557 521.311H381.447L387.497 527.151H390.387L392.487 526.361L395.377 523.451V522.131L403.257 515.511L405.097 514.451L407.987 515.511L410.087 514.451L415.867 510.481L417.707 507.571L427.947 501.481L429.787 504.661L426.637 506.511V513.401L429.797 516.591H433.477L437.687 519.241L435.327 523.481L441.377 525.341L444.267 527.201L445.317 529.321L443.217 531.971L440.597 544.161L437.707 547.071V553.961L440.597 556.881L441.387 562.971L450.327 563.771L454.007 559.801L463.727 561.931L467.927 561.141L471.607 561.941L472.657 563.001L472.667 569.891L474.767 573.871L478.707 577.581L479.497 582.611L483.707 584.471L488.447 594.531L489.507 603.271L487.407 606.451L483.727 607.511L481.627 611.211L484.787 618.361L486.497 628.171L473.337 620.271L439.647 627.411L435.507 631.891L431.687 631.751L428.577 633.711L429.847 639.081L428.357 639.621L428.177 642.751L425.337 648.181L427.217 649.931L423.787 651.511L425.217 656.351L424.187 656.581L422.457 654.151L417.437 657.111L415.977 664.211L414.067 663.681L413.347 665.171L414.357 669.361L413.307 674.171L409.487 673.121L408.457 673.961L405.967 679.881L406.287 682.741L404.037 682.791L401.987 685.431L403.517 686.681L403.607 689.271L399.027 696.761L397.657 705.801L394.907 704.741L393.477 709.051L386.877 707.901L385.897 711.141L386.747 716.311L382.797 716.831L380.737 723.771L377.017 726.071L373.857 725.361L372.297 726.321L367.017 724.171L365.667 727.531L363.697 728.801L356.787 726.101L352.877 734.621L353.317 743.411L351.007 745.141L347.487 754.911L344.157 758.551L337.737 759.921L336.507 763.921L334.687 764.961L328.407 765.381L321.177 759.381L317.437 758.301L312.057 761.571L305.357 761.161L302.017 762.441L296.107 767.001L293.777 763.461L293.867 761.341L296.977 760.101L298.347 755.731L302.877 750.351L305.717 749.201L308.457 746.021L306.167 744.731L300.767 747.861L294.867 748.271L293.587 747.301L293.267 742.931L295.417 741.461L294.367 739.481L295.507 736.121L295.047 731.661L292.487 727.381L292.437 721.171L295.457 718.271L294.037 717.121L290.567 717.721L288.877 720.391L288.187 727.391L278.747 727.311L278.867 725.231L276.077 714.831L276.447 709.401L278.367 707.281L278.097 705.721L275.127 706.781L274.487 705.401L268.957 706.411L263.017 700.191L260.487 692.131L264.087 682.221L262.027 677.991L269.907 667.421L265.737 661.071L263.797 660.371L264.217 658.271L270.457 651.711L266.157 650.021L258.247 650.861L254.777 649.881L254.367 647.061L255.567 644.891L252.737 645.951L247.757 646.781L244.417 645.441L244.047 641.711L243.317 640.241L238.607 636.271L241.347 630.781L237.967 629.171L237.467 627.371L238.747 623.911L237.377 621.971L237.007 619.941L233.727 617.281Z" fill="black"/>
<path d="M786.007 237.741L788.987 237.811L791.587 242.481L792.897 241.831L792.367 240.211L793.337 238.831L795.947 239.761L799.037 238.391L799.867 241.051L807.797 240.821L809.677 243.101L815.397 245.521L825.307 244.511L821.367 249.111L808.497 255.231L805.607 257.901L803.767 261.891L808.507 269.891L810.347 279.751L813.507 285.881L812.717 287.751L808.517 289.611L809.577 296.801L807.737 299.461L804.847 300.791L805.637 304.791L800.647 309.581L799.857 311.711L799.867 314.641L803.807 315.441V317.571L801.707 319.701L802.497 323.421L800.657 325.551L797.767 326.351L796.987 332.471L797.777 334.331L795.947 343.381L799.887 345.241L803.827 351.371L811.447 352.171L815.657 354.301L818.287 358.291L822.487 357.501L826.177 359.361L831.427 359.371L832.217 361.231H835.107V362.291L837.997 364.161L838.797 372.931L836.167 371.071L832.227 375.321V379.041L828.287 381.971L826.187 381.961L829.077 379.041V375.321L828.287 377.181L826.187 378.241H823.557L820.407 376.111L817.517 380.101L819.357 383.021H814.627L812.787 380.891L814.617 376.111L809.627 378.231L807.787 372.111L806.737 373.971H803.847V372.111L799.907 370.251L797.797 371.041L799.907 373.971L795.967 375.291L792.017 372.101L789.917 377.151L790.977 378.211L787.297 380.071L785.197 378.211L788.077 373.961L787.287 369.171L785.187 375.291L783.087 372.891L782.037 373.951L781.247 378.211L783.087 380.071L777.317 388.041L761.547 391.751L762.607 396.001L767.597 398.931L755.777 408.751L751.837 410.611L743.167 410.601L737.127 409.541L734.237 407.671L735.287 411.661L734.237 410.601L730.557 410.591L731.347 411.661L730.557 415.641L724.517 414.841L721.627 417.491L720.317 419.621L722.687 425.461L721.637 431.571L718.487 432.631L716.647 436.351L712.707 438.201L708.767 442.451L708.777 448.291L704.837 452.271H705.887V453.331L701.677 454.121L699.847 456.251L696.167 457.041L695.117 459.431L691.967 459.421L690.127 462.081H691.177L691.967 464.201L699.067 466.061L701.697 469.251L704.057 470.051L703.147 470.971L709.577 473.501L712.727 472.971L713.787 474.041H716.677L720.357 477.231H722.717L729.297 484.931L741.117 483.871L743.217 484.941L748.997 482.021L755.837 480.971L759.787 493.701L763.727 500.871L766.897 513.601V514.661L762.687 516.781V519.431L771.627 522.351L774.247 516.781L776.617 519.441L778.457 517.581L782.137 519.441L781.347 522.361H784.237L785.287 519.441L789.227 518.651L791.067 515.741L792.117 516.801L792.127 520.511L794.227 521.571L800.797 521.581L803.947 519.461L804.997 520.521L801.847 522.371L800.797 527.411L802.637 526.611L805.007 527.411L808.687 533.511H809.737L807.897 531.391L810.527 529.541L810.517 526.621L812.887 527.421L814.727 525.561L816.557 518.671H817.607L818.407 522.391L817.617 524.771L822.607 525.571L820.507 527.421V531.401L819.457 532.191L817.617 530.341H815.777L814.727 532.191L814.737 534.581L816.577 537.491L819.467 538.291L817.627 541.201L814.737 540.141L815.787 542.531L813.687 545.441L814.737 549.151H812.907V551.271L807.917 554.181L803.967 551.261H800.817V553.381L802.657 554.171V557.091L800.817 558.941V560.001L802.657 558.941V560.001L800.827 565.031L806.877 574.041L803.987 577.751L800.837 579.071L802.677 581.981H797.947L797.157 582.771L797.947 584.631L796.107 586.741H794.267L792.167 590.711L790.067 591.771L787.447 590.711L786.397 592.561L787.447 597.851L786.397 600.501L780.357 607.641L783.257 613.201V616.381L786.417 625.381L782.217 630.131H779.587L778.537 631.981L779.597 644.151L776.707 644.941L775.397 647.851H773.557L771.717 651.811L772.507 657.631H773.557L773.567 667.681L769.627 674.551L771.737 680.631L774.367 679.311L777.517 680.631L778.567 682.481L783.307 683.541L786.457 682.491L794.337 683.551L796.177 680.651L800.907 678.271L804.057 674.571V672.721L810.617 665.591L811.667 660.571L813.767 657.661L816.657 657.671L823.757 663.751L824.547 669.571L829.277 672.741L833.487 670.371L838.997 664.821L844.247 662.971L852.137 664.831L861.867 671.711L858.977 675.671L861.867 677.531L864.767 682.551L868.707 686.251L898.147 697.111L906.827 714.821L906.047 716.931L900.787 720.091L898.167 723.791V731.711L896.327 733.561L892.917 732.761L886.347 734.611L883.197 736.721L882.407 740.681L886.357 746.491V751.241L892.137 752.301L896.347 754.411V756.521L886.367 761.271V763.121L890.317 768.131L897.147 769.981L900.037 771.831L901.877 775.001L900.827 782.131L897.157 783.971L902.937 791.891L903.737 794.791L897.157 791.881H891.117L888.487 793.721H883.237L879.557 791.871L873.517 795.561L871.677 799.511L862.747 800.821L860.117 798.451L856.957 799.501L854.857 802.661L851.187 804.511L850.127 803.451L848.027 805.561L846.977 803.451L845.137 805.561L842.247 803.451L841.457 793.691L840.397 791.841L841.447 782.871L840.397 782.081L837.237 782.871L837.247 787.621L835.407 791.841L830.417 792.891L828.577 794.731L822.797 792.881L822.787 785.761L819.637 784.971L813.067 792.871H809.917V787.601L805.977 786.801L804.127 782.051H799.137L798.087 780.731L795.457 780.721L794.407 777.821H793.087L794.407 775.971L794.397 768.061L791.237 763.041L789.397 761.991L786.507 761.981L785.457 763.041L784.417 769.901L780.477 773.061L767.867 775.961L767.077 777.011H762.867L763.917 774.101L762.867 771.731L768.907 766.191V763.031L765.747 759.061V755.371L763.907 760.121L761.807 761.961H749.197L745.257 765.121L743.417 763.011L741.667 764.101L731.217 759.991L723.337 761.001L719.187 759.541L720.387 751.781L722.297 749.651L722.337 746.421L720.827 743.101L721.667 740.781L725.477 741.361L730.657 738.711L730.697 735.971L728.767 732.041L730.727 723.701L726.427 719.731L722.777 718.051L722.857 715.761L719.587 710.501L716.737 709.731L713.157 710.251L708.357 708.761L706.637 710.391L705.797 709.441L707.907 704.831L701.087 700.131L700.177 698.151L701.517 695.451L700.267 691.401L703.197 689.431L703.697 687.671L698.817 686.561L696.077 684.421L698.447 680.991L689.957 673.731L688.247 665.761L681.417 663.431L679.027 655.151L668.927 641.251L659.277 632.921L649.887 627.721L646.497 611.681L641.267 607.591L597.227 607.721L598.247 598.501L603.237 593.481L604.027 588.711L607.957 583.691L609.797 577.601L611.107 567.801L612.937 564.891L612.927 552.171L611.077 535.211L609.767 532.031L602.147 531.231L591.107 525.391H588.207V521.411L590.307 514.521L589.257 512.401H590.307L591.087 506.571L594.237 505.781L596.077 501.531V496.761L600.017 490.661L600.797 486.951L598.957 485.621L602.107 480.851L600.787 474.751L603.147 469.971L599.997 465.991L593.427 461.211L589.217 462.001L588.167 456.951L591.047 450.321L599.977 442.361L611.017 446.091H617.587L629.677 443.451L637.027 438.141L650.157 432.581L652.787 428.331L641.227 424.601L637.017 421.681L633.337 416.631L629.657 417.421L624.397 411.571L619.397 396.691L619.387 389.781L631.467 373.841L638.297 370.921H644.077L644.867 369.061L649.067 367.201L654.847 361.091L653.787 357.371H655.627L654.837 354.971L652.737 353.111L646.957 351.241L643.007 352.041L640.117 347.251V345.121L641.167 343.261L647.997 340.341L651.937 336.081L650.887 334.221L647.987 333.421V332.351L651.927 326.231L658.757 325.441L660.597 323.311L663.487 316.391L662.687 298.551L663.467 296.691L667.677 293.761L661.627 291.891L658.737 287.631H653.737L650.057 285.761L649.007 283.891L650.057 281.501L650.047 272.971L648.067 268.831L652.567 264.461L651.567 261.221L652.347 258.841L657.307 258.541L658.117 254.581L663.317 251.781L667.927 237.421L672.767 240.011L677.657 239.481L680.707 237.411L684.547 238.041L687.057 237.191L690.477 238.821L691.287 240.791L693.327 240.561L695.577 247.451L700.797 252.391L709.837 256.111L710.697 263.391L709.037 268.111L711.897 272.571L715.407 275.441L717.207 280.621L716.237 283.771L719.537 288.351L721.887 288.511L726.297 292.291L729.257 292.141L734.547 288.921L734.517 286.191L739.047 278.291L741.237 278.721L747.247 274.781L744.607 272.071L744.727 270.731L752.227 269.101L753.837 267.511L754.067 261.681L756.767 260.381L754.897 255.531L757.097 254.041L766.007 254.311L771.767 250.801L772.307 245.531L774.707 244.901L778.837 246.361L780.567 245.021L780.967 242.251L784.777 243.081L785.247 240.541L783.757 237.531L784.067 236.681L786.007 237.741Z" fill="black"/>
<path d="M964.277 191.001L971.417 192.971L979.117 193.381L990.407 200.911L997.027 202.701L1000.43 205.311L1003.12 210.131L1009.67 216.101L1011.52 220.731L1006.69 227.431L1005.72 237.361L1008.18 238.971L1010.38 242.891L1014.26 243.351L1015.01 241.121L1016.98 241.181L1016.96 243.101L1018.69 243.391L1020.55 246.181L1021.56 249.001L1020.48 257.531L1018.54 258.511L1017.83 264.391L1018.88 267.521L1021.65 267.701L1025.7 270.511L1028.27 267.381L1032.15 267.881L1036.59 273.541L1034.81 278.981L1038.31 287.131L1028.53 336.511L1033.83 336.871L1037.85 338.821L1039.9 337.611L1044.04 340.111L1048.39 336.191L1055.32 335.301L1056.84 337.121L1055.77 345.221L1058.36 347.091L1061.49 358.061L1068.32 365.821L1071.06 365.171L1074.29 367.401L1076.05 364.781L1081.04 361.641L1082.64 363.011L1083.94 367.431L1082.44 368.061L1082.46 369.411L1085.4 371.471L1086.52 374.741L1094.05 377.701L1103.84 377.581L1107.29 380.051L1101.55 381.291L1099.74 385.371L1100.33 386.721L1103.05 387.671L1109.07 387.821L1107.11 394.781L1099.65 396.231L1090.29 393.171L1086.98 397.511L1089.09 404.321L1075.94 407.211L1074.8 410.341L1076.28 415.501L1075.17 418.021L1073.5 420.341L1068.52 420.011L1066.7 421.341L1066.99 426.481L1062.96 430.691L1062.11 435.701L1057 440.021L1057.68 448.771L1060.35 449.791L1066.7 447.101L1071.96 449.611L1080.94 445.261L1084.38 445.981L1086.36 436.081L1089.75 430.481L1091.33 429.881L1099.12 429.311L1102.4 430.951L1107.09 428.771L1111.92 429.981L1115.91 433.291L1121.91 442.131L1121.22 446.071L1123.24 453.721L1123.8 465.791L1122.74 468.541L1118.77 470.991L1115.02 480.981L1120.52 482.801L1118.65 488.561L1120.37 493.101L1119.54 501.891L1121.38 505.321L1121.57 509.071L1124.18 511.631L1123.62 521.111L1126 524.431L1126.07 528.411L1128.88 530.311L1132.07 539.531L1140.65 541.351L1146.01 537.661L1149.34 537.511L1150.36 542.381L1154.08 548.161L1169.95 551.451L1174.34 555.561L1175.6 558.671L1177.86 567.601L1177 572.791L1172.77 577.821L1166.46 591.541L1161.75 595.491L1151.61 599.881L1146.95 606.381L1146.57 608.961L1144.18 611.031L1146.37 612.891L1149.17 611.631L1149.78 614.691L1144.09 618.091L1141.93 619.821L1142.7 622.241L1143.99 622.751L1146.94 622.671L1148.67 624.111L1147.99 627.191L1146.01 626.671L1145.56 629.301L1150.51 629.701L1151.45 631.621L1150.57 634.441L1152.47 635.451L1151.17 641.241L1149.33 642.361L1150.49 646.721L1148.83 648.651L1147.85 650.581L1148.89 656.051L1146.72 659.041L1147.86 662.261L1148.13 664.971L1147.18 667.971L1144.19 669.841L1145.53 671.911L1144.9 676.691L1111.51 677.721L1105.99 679.561L1098.11 685.641L1093.91 683.781H1090.23L1089.18 684.571L1090.23 688.541L1088.13 692.501L1084.98 691.701L1082.35 695.401L1081.3 693.551L1079.46 694.341L1078.42 700.421L1073.42 701.471L1072.37 698.301L1070.53 697.241L1069.74 692.481L1068.42 690.631L1067.37 691.691V694.331L1065.54 697.241L1067.39 711.241L1067.4 722.861L1064.51 725.761L1063.72 732.891L1060.84 737.911V742.661L1055.85 746.621L1052.96 750.571L1051.91 757.441L1049.82 762.181V767.201L1051.14 771.161L1054.82 776.181V779.871L1051.93 783.031L1039.06 787.771L1035.38 791.991L1032.5 798.581H1031.18L1015.69 810.701L1013.59 811.491L1003.86 807.531L994.927 806.461L978.637 812.521L972.587 812.511L963.657 809.341L952.087 798.521L939.207 790.601L934.477 790.591L916.607 795.591L903.737 794.791L902.937 791.891L897.157 783.971L900.827 782.131L901.877 775.001L900.037 771.831L897.147 769.981L890.317 768.131L886.367 763.121V761.271L896.347 756.521V754.411L892.137 752.301L886.357 751.241V746.491L882.407 740.681L883.197 736.721L886.347 734.611L892.917 732.761L896.327 733.561L898.167 731.711V723.791L900.787 720.091L906.047 716.931L906.827 714.821L898.147 697.111L868.707 686.251L864.767 682.551L861.867 677.531L858.977 675.671L861.867 671.711L852.137 664.831L844.247 662.971L838.997 664.821L833.487 670.371L829.277 672.741L824.547 669.571L823.757 663.751L816.657 657.671L813.767 657.661L811.667 660.571L810.617 665.591L804.057 672.721V674.571L800.907 678.271L796.177 680.651L794.337 683.551L786.457 682.491L783.307 683.541L778.567 682.481L777.517 680.631L774.367 679.311L771.737 680.631L769.627 674.551L773.567 667.681L773.557 657.631H772.507L771.717 651.811L773.557 647.851H775.397L776.707 644.941L779.597 644.151L778.537 631.981L779.587 630.131H782.217L786.417 625.381L783.257 616.381V613.201L780.357 607.641L786.397 600.501L787.447 597.851L786.397 592.561L787.447 590.711L790.067 591.771L792.167 590.711L794.267 586.741H796.107L797.947 584.631L797.157 582.771L797.947 581.981H802.677L800.837 579.071L803.987 577.751L806.877 574.041L800.827 565.031L802.657 560.001V558.941L800.817 560.001V558.941L802.657 557.091V554.171L800.817 553.381V551.261H803.967L807.917 554.181L812.907 551.271V549.151H814.737L813.687 545.441L815.787 542.531L814.737 540.141L817.627 541.201L819.467 538.291L816.577 537.491L814.737 534.581L814.727 532.191L815.777 530.341H817.617L819.457 532.191L820.507 531.401V527.421L822.607 525.571L817.617 524.771L818.407 522.391L817.607 518.671H816.557L814.727 525.561L812.887 527.421L810.517 526.621L810.527 529.541L807.897 531.391L809.737 533.511H808.687L805.007 527.411L802.637 526.611L800.797 527.411L801.847 522.371L804.997 520.521L803.947 519.461L800.797 521.581L794.227 521.571L792.127 520.511L792.117 516.801L791.067 515.741L789.227 518.651L785.287 519.441L784.237 522.361H781.347L782.137 519.441L778.457 517.581L776.617 519.441L774.247 516.781L771.627 522.351L762.687 519.431V516.781L766.897 514.661V513.601L763.727 500.871L759.787 493.701L755.837 480.971L748.997 482.021L743.217 484.941L741.117 483.871L729.297 484.931L722.717 477.231H720.357L716.677 474.041H713.787L712.727 472.971L709.577 473.501L703.147 470.971L704.057 470.051L701.697 469.251L699.067 466.061L691.967 464.201L691.177 462.081H690.127L691.967 459.421L695.117 459.431L696.167 457.041L699.847 456.251L701.677 454.121L705.887 453.331V452.271H704.837L708.777 448.291L708.767 442.451L712.707 438.201L716.647 436.351L718.487 432.631L721.637 431.571L722.687 425.461L720.317 419.621L721.627 417.491L724.517 414.841L730.557 415.641L731.347 411.661L730.557 410.591L734.237 410.601L735.287 411.661L734.237 407.671L737.127 409.541L743.167 410.601L751.837 410.611L755.777 408.751L767.597 398.931L762.607 396.001L761.547 391.751L777.317 388.041L783.087 380.071L781.247 378.211L782.037 373.951L783.087 372.891L785.187 375.291L787.287 369.171L788.077 373.961L785.197 378.211L787.297 380.071L790.977 378.211L789.917 377.151L792.017 372.101L795.967 375.291L799.907 373.971L797.797 371.041L799.907 370.251L803.847 372.111V373.971H806.737L807.787 372.111L809.627 378.231L814.617 376.111L812.787 380.891L814.627 383.021H819.357L817.517 380.101L820.407 376.111L823.557 378.241H826.187L828.287 377.181L829.077 375.321V379.041L826.187 381.961L828.287 381.971L832.227 379.041V375.321L836.167 371.071L838.797 372.931L837.997 364.161L835.107 362.291V361.231H832.217L831.427 359.371L826.177 359.361L822.487 357.501L818.287 358.291L815.657 354.301L811.447 352.171L803.827 351.371L799.887 345.241L795.947 343.381L797.777 334.331L796.987 332.471L797.767 326.351L800.657 325.551L802.497 323.421L801.707 319.701L803.807 317.571V315.441L799.867 314.641L799.857 311.711L800.647 309.581L805.637 304.791L804.847 300.791L807.737 299.461L809.577 296.801L808.517 289.611L812.717 287.751L813.507 285.881L810.347 279.751L808.507 269.891L803.767 261.891L805.607 257.901L808.497 255.231L821.367 249.111L825.307 244.511L828.877 251.131L831.227 250.911L833.457 250.691L835.907 252.861L839.647 252.961L844.737 257.951L847.667 256.661L849.507 258.101L854.007 257.931L855.027 260.751L859.197 264.851L871.217 264.921L877.847 269.071L889.347 270.421L889.977 264.781L892.647 263.261L893.317 261.221L892.977 253.711L900.767 245.491L910.797 242.441L915.417 242.171L921.377 238.131L925.647 233.281L936.287 230.851L937.777 232.521L940.137 231.771L948.507 233.761L948.267 230.411L950.237 230.391L951.897 228.751L951.457 221.431L953.737 220.331L954.007 216.131L955.557 214.411L949.537 211.321L948.447 207.611L945.567 206.621L943.657 204.531L941.267 199.541L938.107 200.011L937.937 197.161L943.687 195.161L944.957 191.441L948.647 191.891L949.277 194.591L950.987 193.601L951.937 190.611L957.767 193.741L959.367 191.441L962.847 190.271L964.277 191.001Z" fill="black"/>
<path d="M605.937 203.301L612.817 205.191L613.777 209.241L607.337 211.171L606.767 208.241L602.927 211.051L602.557 214.561L601.217 215.751L602.907 218.411L603.717 226.421L601.247 229.041L600.707 232.081L596.857 234.501L593.357 239.351L593.897 244.551L598.087 251.211L602.937 254.021L613.407 257.031L615.977 261.181L615.747 264.381L623.877 270.851L632.917 275.661L636.067 275.081L640.307 271.431L644.977 271.491L648.067 268.831L650.047 272.971L650.057 281.501L649.007 283.891L650.057 285.761L653.737 287.631H658.737L661.627 291.891L667.677 293.761L663.467 296.691L662.687 298.551L663.487 316.391L660.597 323.311L658.757 325.441L651.927 326.231L647.987 332.351V333.421L650.887 334.221L651.937 336.081L647.997 340.341L641.167 343.261L640.117 345.121V347.251L643.007 352.041L646.957 351.241L652.737 353.111L654.837 354.971L655.627 357.371H653.787L654.847 361.091L649.067 367.201L644.867 369.061L644.077 370.921H638.297L631.467 373.841L619.387 389.781L619.397 396.691H617.557L618.607 398.821L610.987 396.681L611.777 402.801L602.057 404.651L592.077 410.491L580.257 425.351L574.747 428.271L567.647 427.471L561.867 434.371L558.977 435.431L558.987 438.081L552.937 443.391L538.487 440.461L532.437 437.271L527.437 427.441V424.521L530.587 416.551L531.377 417.351L530.587 411.501L524.537 406.711L516.657 404.581L514.807 402.721L513.757 398.731L510.867 397.671L507.707 392.621L502.187 391.551H497.987L490.107 393.931L488.267 395.791L483.547 409.341L475.667 413.581V414.651L471.467 417.301L469.627 416.501L464.887 408.531H461.737L450.177 412.501L445.177 410.371L440.457 419.401L438.357 418.341L437.567 416.481L431.517 415.411L430.467 413.551L427.837 402.651L428.617 393.891L426.507 391.491L423.617 392.551L422.567 389.631L418.887 388.561L416.787 384.841L406.797 387.751L404.957 386.691L404.177 388.551H401.277L404.177 390.681L402.077 394.661L398.137 397.581H394.197L393.407 400.501L389.207 402.621V405.551L385.527 408.471L384.487 416.441L380.547 422.541L372.927 419.351L370.557 417.221H365.037L357.947 424.391L352.957 423.321L351.907 422.521L351.897 415.351L349.267 410.301L346.377 409.231L349.267 405.521L347.417 396.481L351.887 392.501L348.197 385.851L351.087 381.601L353.977 378.681L361.857 374.961L360.807 373.631L366.847 367.781L380.507 361.941L381.287 359.821L384.447 359.021L385.487 352.901L394.157 347.061L395.207 348.121L396.257 347.061L393.367 342.001L394.157 340.141L393.367 336.951L391.267 339.071L390.207 336.941L386.267 335.881V334.011L383.377 333.211V330.291L381.267 329.221V326.031L378.377 327.091L375.487 325.221V323.091L380.477 320.431L381.257 315.111L378.367 311.381L377.577 302.331L383.357 300.471L384.397 297.271L383.347 291.681L376.507 284.481L382.547 277.561L374.667 273.561L373.607 264.761L375.447 263.701L377.537 257.571L375.437 253.831L376.487 251.701L373.597 249.561L386.197 231.711L416.667 214.921L417.457 212.791H418.587L421.167 212.251L427.347 207.911L432.627 207.621L444.167 212.701L451.407 222.301L454.107 222.981L472.027 214.991L484.467 212.811L494.737 203.891L498.217 204.531L502.507 203.581L506.567 207.541L510.887 207.991L526.597 202.291L535.467 207.901L549.927 209.501L558.017 208.561L566.017 203.541L576.467 202.951L587.827 200.291L599.627 200.511L605.937 203.301Z" fill="black"/>
<path d="M380.547 422.541L384.487 416.441L385.527 408.471L389.207 405.551V402.621L393.407 400.501L394.197 397.581H398.137L402.077 394.661L404.177 390.681L401.277 388.551H404.177L404.957 386.691L406.797 387.751L416.787 384.841L418.887 388.561L422.567 389.631L423.617 392.551L426.507 391.491L428.617 393.891L427.837 402.651L430.467 413.551L431.517 415.411L437.567 416.481L438.357 418.341L440.457 419.401L445.177 410.371L450.177 412.501L461.737 408.531H464.887L469.627 416.501L471.467 417.301L475.667 414.651V413.581L483.547 409.341L488.267 395.791L490.107 393.931L497.987 391.551H502.187L507.707 392.621L510.867 397.671L513.757 398.731L514.807 402.721L516.657 404.581L524.537 406.711L530.587 411.501L531.377 417.351L530.587 416.551L527.437 424.521V427.441L532.437 437.271L538.487 440.461L552.937 443.391L558.987 438.081L558.977 435.431L561.867 434.371L567.647 427.471L574.747 428.271L580.257 425.351L592.077 410.491L602.057 404.651L611.777 402.801L610.987 396.681L618.607 398.821L617.557 396.691H619.397L624.397 411.571L629.657 417.421L633.337 416.631L637.017 421.681L641.227 424.601L652.787 428.331L650.157 432.581L637.027 438.141L629.677 443.451L617.587 446.091H611.017L599.977 442.361L591.047 450.321L588.167 456.951L589.217 462.001L593.427 461.211L599.997 465.991L603.147 469.971L600.787 474.751L602.107 480.851L598.957 485.621L600.797 486.951L600.017 490.661L596.077 496.761V501.531L594.237 505.781L591.087 506.571L590.307 512.401H589.257L590.307 514.521L588.207 521.411V525.391H591.107L602.147 531.231L609.767 532.031L611.077 535.211L612.927 552.171L612.937 564.891L611.107 567.801L609.797 577.601L607.957 583.691L604.027 588.711L603.237 593.481L598.247 598.501L597.227 607.721L529.467 608.091L527.427 616.681L526.057 618.331L490.917 628.941L486.457 628.081L484.737 618.261L481.587 611.121L483.687 607.411L487.357 606.361L489.457 603.181L488.407 594.451L483.667 584.391L479.457 582.531L478.667 577.501L474.727 573.791L472.617 569.811V562.931L471.567 561.871L467.887 561.071L463.677 561.861L453.957 559.731L450.277 563.701L441.347 562.901L440.557 556.811L437.657 553.891V547.001L440.547 544.091L443.167 531.901L445.267 529.261L444.207 527.131L441.317 525.281L435.277 523.421L437.637 519.181L433.427 516.521H429.747L426.597 513.341L426.587 506.441L429.747 504.591L427.897 501.401L417.657 507.501L415.817 510.411L410.037 514.381L407.937 515.441L405.047 514.381L403.207 515.441L395.327 522.061V523.391L392.447 526.301L390.337 527.091H387.447L381.407 521.251H378.517L375.617 518.331L369.837 519.121L365.107 516.471L358.017 522.031L354.077 521.231L353.017 514.341L348.287 507.441L349.337 505.591L351.177 506.381L351.957 502.411L355.377 498.431L353.007 496.571V492.591L357.207 486.761L352.997 481.721L351.147 474.551L351.937 463.941L354.027 457.841V452.001L356.127 449.081L360.857 446.961L361.907 443.241L368.737 439.001L369.777 436.081L373.727 437.941L376.607 428.121L380.547 425.201V422.541Z" fill="black"/>
<path d="M1145.94 685.641L1147.3 686.501L1147.1 690.011L1150.8 696.301L1159.24 706.931L1174.42 707.881L1183.04 703.991L1187 704.421L1188.41 701.311L1193.87 700.961L1191.15 711.311L1187.54 716.781L1187.7 725.351L1181.4 737.501L1182.36 742.541L1188.62 747.381L1193.37 744.041L1196.64 744.541L1195.87 748.561L1200.11 750.221L1200.13 752.101L1204.07 755.921L1212.55 760.571L1207.87 762.531L1199.95 759.881L1195.36 761.761L1191.38 766.811L1184.6 770.461L1182.63 772.831L1182.82 778.961L1176.61 795.121L1175.54 804.881L1178.98 810.021L1183.02 812.311L1192.02 810.301L1198.16 812.241L1203.68 811.011L1207.39 812.891L1214.62 829.821L1220.61 848.821L1224.97 855.261L1225.11 858.641L1221.62 864.751L1224.15 871.271L1228.26 876.491L1211.13 877.171L1204 862.231L1197.61 857.851L1195.89 861.431L1196.68 867.331L1193.47 869.451L1187.84 869.951L1188.15 866.991L1184.16 866.861L1182.14 864.931L1182.44 862.401L1183.47 858.991L1179.37 856.051L1177.37 857.281L1173.97 856.441L1171.62 858.911L1161.77 857.001L1158.45 855.141L1155.7 856.581L1153.47 855.261L1149.26 858.101L1147.1 858.221L1143.2 856.841L1141.26 857.501L1139.83 856.161L1136.53 855.971L1135.27 859.251L1132.4 861.501L1130.42 861.891L1128.74 865.731L1132.02 880.211L1130 884.701L1131.27 892.541L1128.61 895.851L1128.34 899.861L1131.26 901.521L1133.11 900.201L1139.61 905.851L1148.37 906.451L1154.51 911.251L1157.83 912.181L1162.65 904.911L1166.22 908.071L1169.43 906.061L1170.28 908.531L1167.7 911.801L1166.79 921.961L1167.42 923.341L1172.28 925.751L1175.21 931.061L1177.97 931.851L1178.13 936.711L1177.7 937.651L1173.67 936.051L1171.76 937.041L1170.52 935.851L1170.97 933.091L1169.13 932.381L1167.56 933.581L1162.47 933.441L1159.68 935.101L1158.71 937.031L1160.39 938.851L1158.35 945.731L1149.88 962.181L1150.3 964.491L1157.36 970.501L1157.43 973.491L1155.01 977.061L1153.69 984.741L1148.81 986.601L1146.15 989.491L1145.52 995.721L1140.87 1001.59L1140.75 1007.91L1137.31 1013.95L1133.79 1015.82L1126.82 1010.23L1121.53 1008.67L1119.33 1004.65L1116.08 1004.97L1112.13 1008.37L1108.37 1009.38L1106.67 1008.35L1105.84 1003.73L1104.47 1002.87L1100.45 1003.54L1091.44 1012.37L1076.12 1000.61L1077.85 996.691L1077.03 989.601L1060.63 989.011L1055.98 995.741L1052.82 998.281L1053.26 1001.95L1050.21 1012.77L1050.73 1013.91L1052.02 1013.69L1052.45 1020.01L1044.52 1028.91L1041.53 1029.95L1040.78 1035.86L1038.01 1036.03L1035.62 1037.65L1029.93 1046.56L1032.02 1052.39L1031.18 1054.93L1031.96 1057.09L1029.56 1060.41L1027.02 1061.27L1020.54 1060.78L1018.44 1056.34L1014.92 1056.74L1015.52 1058.75L1014.26 1060.53L1012.26 1059.34L1010.5 1062.33L1001.78 1063.65L993.677 1070.69L990.657 1070.41L987.347 1071.91L989.047 1066.59L985.847 1061.5L985.437 1058.69L979.227 1058.74L973.227 1053.83L971.427 1050.95L970.607 1045.91L971.277 1041.07L967.127 1039.62L959.347 1041.24L957.037 1039.83L955.937 1034.14L953.587 1033.08L950.207 1033.9L946.917 1033.05L941.887 1039.01L939.197 1039.76L936.907 1034L929.387 1039.23L925.887 1044.14L925.737 1041.87L929.417 1032.3L935.617 1026.04L942.587 1007.78L945.757 1002.87L946.177 1000.64L943.277 997.341L943.527 991.351L947.927 980.351L947.077 976.141L945.717 975.991L945.387 972.521L940.277 970.361L934.837 961.591L933.357 947.451L937.097 942.241L935.187 938.851L935.137 936.031L933.557 934.511L934.147 930.951L929.887 933.571L928.827 932.881L931.337 927.061L928.947 921.431L928.247 911.451L918.967 909.231L920.617 900.741L919.497 898.761L924.187 894.691L921.697 891.681L922.067 887.471L918.917 884.971L924.507 881.261L925.877 878.841L925.517 876.601L916.747 875.511L912.177 872.221L909.127 867.341L904.777 871.641L896.757 872.391L896.587 869.351L901.667 864.291L901.147 863.071L895.817 858.101L890.657 857.621L888.557 859.391L887.807 864.591L886.437 865.411L885.497 862.181L881.887 857.221L883.497 852.941L879.537 848.061L877.297 847.661L874.257 850.721L872.857 850.521L872.127 851.891L873.817 854.181L872.137 855.801L867.467 856.001L865.137 858.301L863.137 856.121L853.187 856.561L844.267 861.971L840.757 865.941L837.227 865.841L830.827 869.301L828.817 867.921L830.897 856.921L825.637 853.251L823.357 853.691L819.257 852.041L815.877 853.051L812.987 853.791L808.107 856.311L804.927 859.461L802.137 859.251L800.167 858.321L795.577 857.621L792.697 858.741L785.367 855.751L780.007 858.191L776.387 857.401L772.687 864.471L768.917 867.831L765.397 873.551L755.607 883.341L748.797 888.021L744.507 887.971L743.377 885.001L741.627 883.961L728.967 882.531L725.077 888.741L724.577 893.711L721.577 894.081L722.677 892.191L722.007 888.511L725.337 879.441L732.407 874.761L731.747 868.761L732.987 860.141L734.657 859.011L736.107 857.761L737.467 849.341L740.777 848.021L743.937 844.381L744.517 840.391L746.687 840.401L750.337 837.761L753.837 838.001L760.617 833.431L760.627 831.031L762.657 827.351L760.447 826.431L758.607 822.811L756.477 820.601L754.707 818.201L753.797 816.941L751.727 811.161L746.577 806.431L743.307 805.881L743.887 803.031L741.797 791.771L742.467 784.661L741.417 777.851L743.857 767.471L741.667 764.101L743.417 763.011L745.257 765.121L749.197 761.961H761.807L763.907 760.121L765.747 755.371V759.061L768.907 763.031V766.191L762.867 771.731L763.917 774.101L762.867 777.011H767.077L767.867 775.961L780.477 773.061L784.417 769.901L785.457 763.041L786.507 761.981L789.397 761.991L791.237 763.041L794.397 768.061L794.407 775.971L793.087 777.821H794.407L795.457 780.721L798.087 780.731L799.137 782.051H804.127L805.977 786.801L809.917 787.601V792.871H813.067L819.637 784.971L822.787 785.761L822.797 792.881L828.577 794.731L830.417 792.891L835.407 791.841L837.247 787.621L837.237 782.871L840.397 782.081L841.447 782.871L840.397 791.841L841.457 793.691L842.247 803.451L845.137 805.561L846.977 803.451L848.027 805.561L850.127 803.451L851.187 804.511L854.857 802.661L856.957 799.501L860.117 798.451L862.747 800.821L871.677 799.511L873.517 795.561L879.557 791.871L883.237 793.721H888.487L891.117 791.881H897.157L903.737 794.791L916.607 795.591L934.477 790.591L939.207 790.601L952.087 798.521L963.657 809.341L972.587 812.511L978.637 812.521L994.927 806.461L1003.86 807.531L1013.59 811.491L1015.69 810.701L1031.18 798.581H1032.5L1035.38 791.991L1039.06 787.771L1051.93 783.031L1054.82 779.871V776.181L1051.14 771.161L1049.82 767.201V762.181L1051.91 757.441L1052.96 750.571L1055.85 746.621L1060.84 742.661V737.911L1063.72 732.891L1064.51 725.761L1067.4 722.861L1067.39 711.241L1065.54 697.241L1067.37 694.331V691.691L1068.42 690.631L1069.74 692.481L1070.53 697.241L1072.37 698.301L1073.42 701.471L1078.42 700.421L1079.46 694.341L1081.3 693.551L1082.35 695.401L1084.98 691.701L1088.13 692.501L1090.23 688.541L1089.18 684.571L1090.23 683.781H1093.91L1098.11 685.641L1105.99 679.561L1111.51 677.721L1144.9 676.691L1144.5 684.561L1145.94 685.641Z" fill="black"/>
</g>
<defs>
<clipPath id="clip0_33_13">
<rect width="1224.76" height="911.371" fill="white" transform="translate(4 161)"/>
</clipPath>
</defs>
</svg>
